<svg xmlns="http://www.w3.org/2000/svg" width="1600" height="1600" viewBox="0 0 1200 1200"><defs><linearGradient id="a" x1="634.465" x2="1036.923" y1="337.737" y2="337.737" gradientTransform="scale(1.06906 .9354)" gradientUnits="userSpaceOnUse"><stop offset="0%" style="stop-color:#b73741;stop-opacity:1"/><stop offset="100%" style="stop-color:#d96545;stop-opacity:1"/></linearGradient><linearGradient id="b" x1="56.028" x2="466.833" y1="968.007" y2="968.007" gradientTransform="scale(1.4116 .70841)" gradientUnits="userSpaceOnUse"><stop offset="0%" style="stop-color:#86972b;stop-opacity:1"/><stop offset="100%" style="stop-color:#99c63a;stop-opacity:1"/></linearGradient><linearGradient id="c" x1="755.266" x2="755.266" y1="621.667" y2="972.985" gradientTransform="scale(.89794 1.11367)" gradientUnits="userSpaceOnUse"><stop offset="0%" style="stop-color:#aed3ff;stop-opacity:1"/><stop offset="100%" style="stop-color:#5d84bc;stop-opacity:1"/></linearGradient></defs><path fill="#3e2440" d="M404.272 79.706c54.44-24.452 114.982-32.09 174.213-31.175 26.429.599 52.87 2.723 78.914 7.31-39.48 7.888-79.23 19.232-113.106 41.706-20.858 13.853-38.96 32.712-49.22 55.774-10.451 22.892-12.643 48.813-9.49 73.57 5.197 39.456 21.739 76.495 42.168 110.325 5.966 9.73 12.294 19.243 19.186 28.339 34.994-19.469 69.898-39.095 104.835-58.677-.35 27.853 1.209 55.683 2.294 83.502 4.949 105.467 11.31 210.855 17.683 316.244-112.089-6.09-224.166-12.384-336.255-18.486-31.593-1.92-63.208-3.288-94.79-5.39 23.66-29.931 47.4-59.807 70.88-89.885-17.13-49.853-31.31-100.813-40.767-152.71-9.865-55.559-14.475-112.733-6.102-168.8 6.282-42.045 20.79-83.502 46.27-117.863 23.74-32.417 56.734-57.434 93.287-73.784"/><path fill="url(#a)" d="M693.3 315.92c23.2 22 46.22 44.18 69.54 66.05 37.34-19.83 77.14-36.15 119.09-42.8 33.77-5.35 69.51-3.16 100.92 11.15 26.29 11.73 48.48 31.38 65.42 54.46 21.3 28.95 35.33 62.61 45.09 97.03 7.42 26.51 12.37 53.69 14.91 81.1.14 2.1.2 4.22.26 6.34-3.39-16.49-8.22-32.83-15.92-47.85-6.37-12.26-15.05-23.79-26.98-31.08-10.88-6.75-24.12-9.17-36.77-7.7-16.32 1.75-31.68 8.35-45.84 16.37-21.44 12.48-40.95 28.23-58.14 46.07 15.69 24.81 31.24 49.71 47.01 74.46-97.82 17.87-195.77 35.07-293.61 52.86 4.88-125.49 9.92-250.97 15.02-376.46" style="fill:url(#a)" transform="matrix(1.12993 0 0 1.12993 -69.02 -67.14)"/><path fill="url(#b)" d="M79.09 685.75c7.34 13.56 16.62 25.98 26.1 38.11 23.1 28.9 50.7 54.71 83.11 72.86 20.9 11.71 43.92 19.93 67.75 22.93 35.25 4.8 71.34-2.59 103.46-17.34 9.44-4.26 18.53-9.25 27.47-14.47-24.11-26.93-48.47-53.64-72.75-80.42 114.5 2.39 229.01 5.04 343.51 7.41 1.15 41.05 1.63 82.13.89 123.19-.32 27.01-1.43 54.01-3.49 80.94-1.53 15.83-3.01 31.75-6.87 47.22-1.04 3.59-1.79 7.35-3.75 10.59-22.07-13.85-44.45-27.2-66.58-40.94-27.33 7.96-55.49 12.86-83.8 15.64-59.85 5.66-121.2.85-178.4-18.3-33.45-11.22-65.27-27.36-93.83-48.1-30.5-22.08-57.18-49.25-79.51-79.52-24.45-33.11-43.8-69.79-59.09-107.94-1.44-3.94-3.41-7.72-4.22-11.86" style="fill:url(#b)" transform="matrix(1.12993 0 0 1.12993 -69.02 -67.14)"/><path fill="url(#c)" d="M678.18 707.35c105.15-5.1 210.3-10.1 315.46-15.02-19.76 22.26-39.7 44.37-59.43 66.66 3.31 25.85 2.53 52.12-.61 77.95-5.68 45.35-20.88 89.94-47.01 127.66-20.6 29.98-48.01 55.06-79.15 73.76-39.2 23.66-83.59 37.64-128.54 45.22 19.69-4.69 38.71-12.31 56.27-22.39 17.8-10.45 34.5-24.37 43.84-43.15 8.17-15.9 9.22-34.76 4.78-51.92-3.05-12.46-8.69-24.09-14.98-35.2-6.5 3.48-12.32 8.12-18.56 12.06-19.26 12.96-38.62 25.77-57.81 38.82-4.71-91.48-9.67-182.96-14.26-274.45" style="fill:url(#c)" transform="matrix(1.12993 0 0 1.12993 -69.02 -67.14)"/></svg>