<?xml version="1.0" encoding="UTF-8"?>
<svg viewBox="0 0 299.5 233.32" xmlns="http://www.w3.org/2000/svg">
  <path d="m290.7,70.2l-99.22-.36c-8.14-.03-16.01-2.98-22.16-8.32L100.95,2.18c-5.71-4.95-14.6-.9-14.59,6.66l.03,67.27c0,11.66-5.97,22.51-15.82,28.74L4.12,146.85c-7.45,4.71-4.14,16.24,4.68,16.27l99.22.36c8.14.03,16.01,2.98,22.16,8.32l68.38,59.35c5.71,4.95,14.6.9,14.59-6.66l-.03-67.27c0-3.36.51-6.64,1.45-9.78h-95.57c-1.91,0-3.34-2.92-2.96-6.04l1.47-12.04-104.84,23.24c-1.6-.02-2.34-1.5-1.12-2.27l62.85-39.74c12.48-7.89,19.66-19.45,19.65-31.64l-.02-61.4c0-1.11,1.72-1.65,2.81-.99l46.05,77.81s-.05.1-.08.14h139.84l12.72-8.04c7.45-4.71,4.14-16.24-4.68-16.27Z" fill="#eb9b23"/>
  <g fill="#eb9b23">
    <path d="m147.54,110.6c3.84,0,4.59,2.55,4.61,5.09h9.7c.05-7.27-4.68-12.04-13.55-12.04-13.99,0-19.19,12.46-19.19,21.57,0,8.62,4.57,14.09,13.73,14.09,8.46,0,14.44-3.8,16.85-12.1h-9.75c-1.14,2.84-2.71,5.1-6.11,5.1s-4.67-2.87-4.67-6.61c0-5.86,2.65-15.09,8.39-15.09Z"/>
    <polygon points="176.63 111.41 186.05 111.41 180.31 138.67 189.87 138.67 195.62 111.41 204.98 111.41 206.52 104.29 178.17 104.29"/>
    <polygon points="246.6 111.41 248.13 104.29 223.51 104.29 216.22 138.67 225.63 138.67 228.37 125.59 242.61 125.59 244.15 118.51 229.91 118.51 231.34 111.41"/>
  </g>
</svg>
