<?xml version="1.0" encoding="UTF-8"?>
<svg version="1.1" xmlns="http://www.w3.org/2000/svg" xmlns:xlink="http://www.w3.org/1999/xlink" x="0px" y="0px" viewBox="0 0 180.6 180.6" style="enable-background:new 0 0 180.6 180.6;" xml:space="preserve">
<style type="text/css">
	.st0{fill-rule:evenodd;clip-rule:evenodd;}
	.st1{fill-rule:evenodd;clip-rule:evenodd;fill:#3E3A39;}
	.st2{fill-rule:evenodd;clip-rule:evenodd;fill:#FFFFFF;}
	.st3{fill-rule:evenodd;clip-rule:evenodd;fill:#E60012;}
	.st4{fill-rule:evenodd;clip-rule:evenodd;fill:#DCDDDD;}
	.st5{fill-rule:evenodd;clip-rule:evenodd;fill:#005BAC;}
	.st6{display:none;}
	.st7{display:inline;}
	.st8{fill-rule:evenodd;clip-rule:evenodd;fill:#FFFFFF;stroke:#000000;stroke-width:1.1047;stroke-miterlimit:22.9256;}
	.st9{fill-rule:evenodd;clip-rule:evenodd;fill:none;stroke:#000000;stroke-width:0.6559;stroke-miterlimit:22.9256;}
</style>
<g>
	<g>
		<path class="st2" d="M90.3,0.8c49.4,0,89.5,40.1,89.5,89.5c0,49.4-40.1,89.5-89.5,89.5c-49.4,0-89.5-40.1-89.5-89.5      C0.8,40.9,40.9,0.8,90.3,0.8z"/>
		<path d="M90.3,180.6C40.5,180.6,0,140.1,0,90.3C0,40.5,40.5,0,90.3,0c49.8,0,90.3,40.5,90.3,90.3      C180.6,140.1,140.1,180.6,90.3,180.6z M90.3,1.6C41.4,1.6,1.6,41.4,1.6,90.3c0,48.9,39.8,88.7,88.7,88.7      c48.9,0,88.7-39.8,88.7-88.7C179,41.4,139.2,1.6,90.3,1.6z"/>
	</g>
	<path class="st3" d="M118.4,48.6c-0.7,0.6-12.9,14.1-30.2,12C108.2,71.8,120.1,47.3,118.4,48.6z"/>
	<polygon class="st4" points="126.1,120.6 131.4,123 90.4,144.4 48.4,123 53.8,120.3 90.4,138.2    "/>
	<path class="st3" d="M119,40.5c0.3-0.2-15.3,13.4-43,11c0.2,0.4,9.5,16.9,15,32.6c-7.9-1.9-19.5-1.9-28.3,5.4     C73.6,88.6,81.5,87,93,90.3c1.3,4.4,2,8.6,2,12.1c0,5.3-1.9,9-6.4,9.9c-10.4,1.9-25.3-11.1-29.5-20.6     C59,109,81.7,132.3,98.3,120.6c8.8-5.7,7-22.3,4.4-30.6c7.3-0.2,14.6-4,19.6-8.7c0,0-12.4,3.7-21.9,3.5     c-4.2-11-10.4-20.3-17.2-27.8C93.4,58.7,114.6,54.9,119,40.5z"/>
	<path class="st5" d="M90.4,100.7c1.1,0.5,2.2,1,3.3,1.5c0.1,2.2-0.8,4.8-2.5,6.6c-2,2-4.3,2.2-7,1.7c-2.7-0.4-5.3-1.7-7.5-3     L90.4,100.7L90.4,100.7z M106.7,108.3c-0.8,10.5-7.8,17.8-18.7,17.5c-8.9-0.3-17.5-6.4-22.4-13.1c-3.9,1.9-8.1,3.9-12.1,5.9     l0.2,0.1l-0.2,0.1h0.5l36.4,17.6l36.9-17.8l-4.1-2l0,0C117.8,113.9,112.2,111,106.7,108.3z"/>
	<path class="st0" d="M139,138.1l1.2-1.4l6.2,5.2c0.9,0.7,1.6,1.1,2.2,1.1c0.6,0,1.1-0.3,1.6-0.9c0.5-0.6,0.7-1.2,0.5-1.7     c-0.1-0.5-0.6-1.2-1.5-1.9l-6.2-5.2l1.2-1.4l6.2,5.2c0.7,0.6,1.1,1,1.4,1.4c0.3,0.4,0.5,0.7,0.6,1.1c0.2,0.7,0.2,1.3,0.1,1.9     c-0.1,0.6-0.4,1.2-0.9,1.8c-0.5,0.6-1.1,1.1-1.6,1.3c-0.6,0.3-1.2,0.3-1.9,0.3c-0.4,0-0.8-0.2-1.2-0.4c-0.4-0.2-0.9-0.6-1.7-1.2     L139,138.1L139,138.1z M157.1,136.1l-8.5-5.2l11.8-0.2l0.9-1.5l-10.8-6.8l-1,1.5l8.2,5l-11.5,0.2l-1,1.6l10.8,6.8L157.1,136.1     L157.1,136.1z M163.7,124.9l-0.8,1.7l-11.4-5.6l0.8-1.7L163.7,124.9L163.7,124.9z M166.8,117.6l-0.4,1l-13.7,0l0.7-1.8l10.1,0.1     l-7.6-6.7l0.7-1.8L166.8,117.6L166.8,117.6z M170.7,104.1l-1.7-0.4l-1.1,4.6l-3.7-0.9l1.1-4.6l-1.6-0.4l-1.1,4.6l-3.7-0.9     l1.1-4.6l-1.7-0.4l-1.5,6.4l12.4,2.9L170.7,104.1L170.7,104.1z M165.5,98.2l0.1-0.9c0.2-1.3,0.1-2.2-0.3-2.9     c-0.3-0.7-0.9-1.1-1.8-1.2c-0.8-0.1-1.4,0.1-1.9,0.6c-0.4,0.5-0.7,1.3-0.9,2.5l-0.2,1.4L165.5,98.2L165.5,98.2z M171.5,99     l-0.2,1.8l-12.6-1.6l0.4-3.6c0.2-1.5,0.7-2.6,1.5-3.3c0.8-0.7,1.9-1,3.2-0.8c1,0.1,1.9,0.6,2.5,1.3c0.6,0.8,0.9,1.7,0.8,2.7     l5.3-3l-0.3,2.3l-6.4,3.5L171.5,99L171.5,99z M168.8,90.5l-0.1-1.7c0.7-0.1,1.2-0.3,1.6-0.6c0.4-0.4,0.6-0.9,0.5-1.4     c0-0.6-0.2-1.1-0.6-1.5c-0.4-0.4-0.9-0.5-1.6-0.5c-0.6,0-1,0.2-1.3,0.5c-0.3,0.3-0.6,0.9-0.8,1.8c0,0,0,0.1-0.1,0.2     c-0.2,1.1-0.7,1.9-1.3,2.4c-0.3,0.2-0.6,0.4-0.9,0.5c-0.3,0.1-0.7,0.2-1,0.2c-1.1,0-2-0.3-2.7-0.9c-0.7-0.6-1.1-1.5-1.1-2.5     c0-1,0.2-1.8,0.8-2.4c0.6-0.6,1.4-1,2.4-1.1l0.1,1.7c-0.5,0-0.9,0.2-1.2,0.6c-0.3,0.3-0.4,0.7-0.4,1.2c0,0.5,0.2,0.9,0.6,1.2     c0.4,0.3,0.8,0.4,1.4,0.4c0.2,0,0.4,0,0.5-0.1c0.2-0.1,0.3-0.2,0.5-0.3c0.3-0.3,0.5-0.8,0.7-1.6c0.1-0.4,0.2-0.7,0.2-0.9     c0.3-0.9,0.7-1.5,1.3-2c0.6-0.5,1.3-0.7,2.1-0.7c1.2,0,2.2,0.3,3,0.9c0.8,0.7,1.2,1.6,1.2,2.7c0,1.1-0.3,2-1,2.7     C170.9,90.1,170,90.4,168.8,90.5L168.8,90.5z M171.6,78.4l0.3,1.8L159.2,82l-0.3-1.8L171.6,78.4L171.6,78.4z M170.7,72l-10.8,2.1     l-0.5-2.3l-1.7,0.3l1.3,6.5l1.7-0.3l-0.5-2.3l10.8-2.1L170.7,72L170.7,72z M163.4,63.4l4.3-1.6l0.6,1.7l-4.4,1.6l-6.2,6.4     l-0.7-1.9l4.8-4.7l-6.7-0.5l-0.7-1.9L163.4,63.4z"/>
	<path class="st0" d="M61.4,156.1l2.7-0.4l0.2,0.1L62,164c-0.2,0.5-0.2,0.9-0.2,1c0,0.1,0.1,0.3,0.2,0.4c0.1,0.1,0.4,0.3,0.8,0.4     l-0.1,0.3l-3.7-1.2l0.1-0.3c0.5,0.1,0.8,0.2,0.9,0.2c0.2,0,0.3-0.1,0.4-0.2c0.1-0.1,0.2-0.4,0.4-1l1.5-5.2     c0.2-0.7,0.3-1.2,0.3-1.4c0-0.2,0-0.3-0.1-0.4c-0.1-0.1-0.2-0.2-0.3-0.2c-0.2-0.1-0.4-0.1-0.8,0L61.4,156.1z"/>
	<path class="st0" d="M78.4,170.4l0-0.3c0.6,0,1.2-0.2,1.8-0.5c0.5-0.3,1.1-0.8,1.5-1.6c0.5-0.7,0.8-1.5,1-2.4     c-0.8,0.5-1.4,0.8-2.1,0.8c-0.7,0-1.3-0.3-1.9-0.8c-0.5-0.5-0.8-1.3-0.9-2.2c0-0.9,0.2-1.7,0.6-2.4c0.6-0.9,1.3-1.3,2.3-1.3     c0.8,0,1.6,0.3,2.2,1c0.8,0.8,1.2,1.9,1.3,3.1c0.1,1.1-0.2,2.2-0.6,3.2c-0.5,1-1.2,1.8-2.2,2.5c-0.8,0.5-1.6,0.8-2.6,0.8     L78.4,170.4L78.4,170.4z M82.7,165.1c0.1-0.7,0.1-1.2,0-1.6c0-0.5-0.1-1-0.3-1.6c-0.2-0.6-0.5-1-0.8-1.3     c-0.3-0.3-0.7-0.4-1.1-0.4c-0.4,0-0.8,0.2-1.1,0.6c-0.3,0.4-0.4,1-0.4,1.8c0.1,1.1,0.3,1.9,0.8,2.5c0.3,0.4,0.8,0.6,1.2,0.6     c0.2,0,0.5-0.1,0.8-0.2C82.2,165.5,82.5,165.3,82.7,165.1z"/>
	<path class="st0" d="M95.9,164.5c0-1.2,0.2-2.1,0.5-3c0.4-0.8,0.8-1.4,1.4-1.8c0.5-0.3,0.9-0.4,1.4-0.4c0.8,0,1.5,0.5,2.1,1.3     c0.8,1,1.1,2.4,1.1,4.1c0,1.2-0.2,2.2-0.5,3c-0.3,0.8-0.8,1.4-1.3,1.7c-0.5,0.3-1,0.5-1.5,0.5c-1,0-1.8-0.7-2.4-1.8     C96.1,167,95.9,165.8,95.9,164.5L95.9,164.5z M97.4,164.7c0,1.4,0.1,2.5,0.5,3.4c0.3,0.8,0.7,1.1,1.3,1.2c0.3,0,0.5-0.1,0.8-0.3     c0.3-0.2,0.5-0.6,0.7-1.2c0.2-0.8,0.4-2,0.4-3.6c0-1.2-0.1-2.1-0.3-2.9c-0.2-0.6-0.4-1-0.7-1.3c-0.2-0.2-0.5-0.3-0.7-0.3     c-0.3,0-0.6,0.1-0.9,0.4c-0.4,0.4-0.6,1-0.7,1.9C97.4,163,97.4,163.9,97.4,164.7z"/>
	<path class="st0" d="M113,156.6l5.1-1.8l0.1,0.3l0.5,10.6l-0.8,0.3l-0.5-9.6l-2.6,0.9c-0.5,0.2-0.9,0.4-1,0.6     c-0.3,0.4-0.5,0.8-0.5,1.3l-0.2,0L113,156.6z"/>
	<path class="st0" d="M9.6,63.8l0.6-1.7l10.4,3.6l0.8-2.3L23,64l-2.1,6.2l-1.6-0.6l0.8-2.2L9.6,63.8L9.6,63.8z M11.9,78.1l5.1-0.8     l-4.4-2.7L11.9,78.1L11.9,78.1z M10.9,73.6L10,78.4l-3.9,0.7l-0.4,2l13.5-2.5l0.3-1.8L7.9,69.6l-0.4,1.9L10.9,73.6L10.9,73.6z      M5.9,88.6l0.1-1.8l12.7,0.4l-0.1,1.8L5.9,88.6L5.9,88.6z M7,102.7l-1-7.8l1.8-0.2l9.7,4.4L17,94l1.8-0.2l0.9,7.3l-1.6,0.2     L8,96.7l0.7,5.8L7,102.7L7,102.7z M8.8,110.7L8.2,109l12-4.1l0.6,1.7l-5.1,1.8l1.7,4.9l5.1-1.8l0.6,1.7l-12,4.1l-0.6-1.7l5.2-1.8     l-1.7-4.9L8.8,110.7L8.8,110.7z M19.9,122.1c-0.6,0.3-1.1,0.7-1.5,1.2c-0.4,0.5-0.7,1-0.9,1.6c-0.2,0.6-0.2,1.2-0.2,1.8     c0.1,0.6,0.3,1.2,0.5,1.7c0.7,1.1,1.6,1.9,2.9,2.2c1.3,0.3,2.5,0.1,3.7-0.6c0.5-0.3,0.9-0.7,1.3-1.1c0.4-0.5,0.6-1,0.8-1.5     c0.2-0.7,0.3-1.3,0.2-1.9c-0.1-0.6-0.3-1.2-0.6-1.8c-0.3-0.5-0.7-1-1.2-1.3c-0.5-0.4-1-0.6-1.6-0.8c-0.6-0.2-1.2-0.2-1.9-0.1     C21,121.5,20.4,121.7,19.9,122.1L19.9,122.1z M18.9,120.4c0.8-0.4,1.6-0.7,2.5-0.8c0.9-0.1,1.7,0,2.6,0.2     c0.8,0.2,1.6,0.6,2.2,1.1c0.6,0.5,1.2,1.1,1.6,1.9c0.4,0.8,0.7,1.6,0.8,2.4c0.1,0.8,0.1,1.7-0.2,2.5c-0.2,0.9-0.6,1.7-1.1,2.3     c-0.5,0.7-1.2,1.2-2,1.7c-0.8,0.5-1.6,0.7-2.4,0.9c-0.8,0.1-1.6,0.1-2.4-0.1c-0.9-0.2-1.8-0.6-2.5-1.1c-0.7-0.5-1.3-1.2-1.8-2     c-0.5-0.8-0.8-1.7-0.8-2.6c-0.1-0.9,0-1.8,0.3-2.7c0.2-0.8,0.6-1.5,1.2-2.1C17.5,121.3,18.2,120.8,18.9,120.4L18.9,120.4z      M33.7,131.8l-6.2,5.2c-0.7,0.6-1.2,1.1-1.5,1.4c-0.3,0.3-0.4,0.7-0.6,1.1c-0.2,0.7-0.2,1.3-0.1,1.9c0.2,0.6,0.5,1.2,1,1.8     c0.5,0.6,1,1,1.6,1.2c0.6,0.2,1.2,0.3,1.9,0.2c0.4,0,0.8-0.2,1.2-0.4c0.4-0.2,1-0.6,1.6-1.2l6.2-5.2l-1.2-1.4l-6.2,5.2     c-0.9,0.7-1.6,1.1-2.1,1.2c-0.6,0-1.1-0.2-1.6-0.8c-0.5-0.6-0.7-1.2-0.6-1.8c0.1-0.6,0.6-1.2,1.5-1.9l6.2-5.2L33.7,131.8z"/>
	<g>
		<path class="st0" d="M109.4,22.2c0.3-0.3,1-0.2,0.9,0.1c0,0,0,0.1,0.1,0.1c0,0-0.1,0-0.1,0c-0.1,0-0.1,0.1-0.2,0.2      c0,0-0.1,0-0.1,0c-0.2-0.1-0.4-0.2-0.5-0.3c0,0,0-0.1,0-0.1C109.3,22.2,109.3,22.2,109.4,22.2L109.4,22.2z M107.2,24.1l4.2-0.6      v0l0,0c0,0,0,0,0,0c0,0,0,0,0.1,0c0,0,0,0,0,0c0.1-0.2,0.2-0.4,0.3-0.6c0,0,0.1,0,0.1,0c0.1-0.1,0.1-0.2,0.1-0.2      c0,0,0.1,0,0.1,0c0.1,0,0.2,0,0.4,0.1c0,0,0.1,0,0.1,0c0.3,0.1,0.7,0.3,1.1,0.4c0,0,0.1,0,0.1,0c0.2-0.1,0.4-0.1,0.6-0.2      c0,0,0.1,0,0.1,0c0.1-0.1,0.2-0.2,0.3-0.2c0,0,0-0.1,0-0.1c0,0,0.1,0,0.1,0c0,0,0-0.1,0-0.1c0,0,0-0.1-0.1-0.1      c0-0.1,0.1-0.1,0.1-0.2c0,0,0-0.1,0-0.1c0-0.1,0-0.2,0-0.3c-0.1-0.1-0.3-0.2-0.4-0.3c0,0,0-0.1,0-0.1c-0.5-0.4-1.1-0.7-1.6-1      c0,0,0-0.1,0-0.1c-0.4,0-1.3-0.5-1.3-0.6c0,0,0-0.1,0.1-0.1c0,0,0-0.1,0-0.1c0,0,0.1,0,0.1-0.1c0,0,0-0.1,0-0.1c0,0,0.1,0,0.1,0      c0.1-0.1,0.2-0.1,0.3-0.1c0,0,0.1,0,0.1-0.1c0.1,0,0.2-0.1,0.2-0.1c0,0,0.1,0,0.1,0c0,0,0.1,0,0.2,0c0,0,0.1,0,0.1,0      c0.2,0.1,0.5,0.2,0.8,0.3c0,0,0.1,0,0.1,0c0,0,0.1,0,0.1,0.1c0.3,0.1,0.6,0.2,0.9,0.3c0,0,0.1,0,0.1,0c0,0,0.1,0,0.1,0      c0,0,0.1,0,0.1,0c0.3-0.3,1.2,0.1,1.7,0.7c0,0,0.1,0,0.1,0c0,0,0.1,0.1,0.2,0.1c0,0,0.1,0,0.1,0c0.4-0.2,0.8-0.4,1.3-0.5      c0,0,0.1,0,0.1,0c0,0,0.1,0,0.1,0c0,0,0.1,0,0.1,0c0,0,0.1,0,0.1,0c0,0,0.1,0,0.1,0c0,0,0.1,0,0.1,0c0,0,0-0.1,0-0.1      c0,0,0.1,0,0.1-0.1c0-0.1,0.1-0.1,0.1-0.2c0,0,0.1,0,0.1,0c0.2-0.6,0.3-0.7,0.2-1.1c0,0,0-0.1,0-0.1c-0.1-0.1-0.2-0.2-0.2-0.3      c0,0,0-0.1,0-0.1c0-0.1-0.1-0.1-0.1-0.2c0,0,0-0.1-0.1-0.1c-0.1-0.1-0.2-0.3-0.4-0.4c0,0,0-0.1,0-0.1c-0.3-0.1-0.5-0.3-0.7-0.4      c0,0,0-0.1,0-0.1c-0.3-0.2-0.6-0.4-0.8-0.6c0,0,0-0.1,0-0.1c-0.1-0.1-0.2-0.2-0.4-0.3c0,0,0-0.1,0-0.1c0.2-0.3,0.5-0.6,0.7-1      c0,0,0.1,0,0.1,0c0.1-0.2,0.2-0.3,0.2-0.4c0,0,0.1,0,0.1,0c0.1-0.2,0.2-0.3,0.2-0.4c0,0,0-0.1,0-0.1c0,0,0.1,0,0.1-0.1      c0.1-0.1,0.1-0.2,0.2-0.3c0,0,0.1,0,0.1,0c0-0.1,0.1-0.2,0.1-0.2c0,0,0.1,0,0.1,0c0.1-0.2,0.2-0.3,0.2-0.4c0,0,0.1,0,0.1,0      c0,0,0-0.1,0.1-0.1c0,0,0-0.1-0.1-0.1c-0.2-0.1-0.3-0.1-0.5-0.2c0,0-0.1,0-0.1,0.1c-0.3-0.1-0.5-0.1-0.7-0.1c0,0-0.1,0-0.1,0      c-0.1,0-0.2,0-0.2,0.1c0,0-0.1,0-0.1,0c-0.2,0-0.3,0-0.4,0.1c0,0-0.1,0-0.1,0c-0.2,0-0.3,0-0.4,0.1c0,0-0.1,0-0.1,0      c0-0.2,0-0.3,0-0.4c0,0,0.1,0,0.1-0.1c0.1,0,0.1-0.1,0.2-0.1c0,0,0.1,0,0.1,0c0,0,0.1,0,0.2,0c0,0,0.1,0,0.1,0      c0.2,0,0.3,0,0.5,0c0,0,0.1,0,0.1,0c0,0,0-0.1,0-0.1c0,0,0-0.1,0-0.1c0-0.4,0-0.8-0.2-0.9c0,0,0-0.1-0.1-0.1      c0-0.2,0-0.3,0.1-0.5c0,0,0-0.1,0-0.1c0,0,0-0.1,0-0.1c0,0,0-0.1,0-0.1c0,0,0-0.1,0-0.1c0,0-0.1,0-0.1,0c0,0,0-0.1-0.1-0.1      c-0.1,0-0.2-0.1-0.2-0.1c-0.2,0.4-0.5,0.7-0.7,1.1c0,0-0.1,0-0.1,0.1c-0.3,0.4-1.1,0.3-1.3,0.8c0,0,0,0.1,0,0.1c0,0,0,0.1,0,0.2      c0,0,0,0.1,0.1,0.1c-0.1,0.2-0.2,0.4-0.3,0.6c0,0,0,0,0,0.1c0,0,0,0.1-0.1,0.1c0,0,0,0,0,0.1c0,0-0.1,0.1-0.1,0.2      c-0.1,0.2-0.1,0.4-0.1,0.6c0,0-0.1,0-0.1,0.1c-0.1,0.1-0.3,0.2-0.4,0.4c0,0-0.1,0-0.1,0c-0.2,0.1-0.4,0.3-0.6,0.5      c0,0-0.1,0-0.1,0c-0.1,0.1-0.3,0.2-0.4,0.4c0,0-0.1,0-0.1,0c-0.1-0.1-0.2-0.2-0.2-0.2c0.1-0.3,0.2-0.6,0.3-0.9c0,0,0-0.1,0-0.1      c0-0.1,0.1-0.1,0.1-0.2c0,0,0.1,0,0.1,0c0.2-0.3,0.3-0.6,0.5-0.8c0,0,0-0.1,0.1-0.1c0,0,0.1,0,0.1,0c0.3-0.6,0.6-1.1,0.9-1.7      c0,0,0-0.1,0-0.1c0-0.1,0-0.2,0-0.3c0,0,0-0.1,0-0.1c0-0.1-0.1-0.1-0.1-0.2c0,0,0,0.1,0,0.1c-0.1,0.2-0.2,0.3-0.3,0.5      c0,0,0,0.1,0,0.1c0,0-0.1,0-0.1,0c-0.1,0.2-0.2,0.4-0.3,0.6c0,0,0,0,0,0.1c0,0-0.1,0-0.1,0.1c-0.1,0.1-0.1,0.3-0.2,0.4      c0,0-0.1,0-0.1,0c-0.1,0.2-0.2,0.4-0.4,0.7c0,0,0,0.1,0,0.1c0,0-0.1,0-0.1,0c-0.1,0.2-0.2,0.4-0.3,0.6c0,0,0,0.1-0.1,0.1      c0,0,0,0,0,0.1c0,0-0.1,0-0.1,0c0,0,0,0,0,0.1c0,0,0,0.1,0,0.1c-0.2,0.3-0.3,0.6-0.5,0.9c0,0-0.1,0-0.1,0c0-0.1-0.1-0.1-0.1-0.1      c0,0,0-0.1,0-0.1c0,0,0-0.1-0.1-0.1c0-0.1,0-0.2,0.1-0.3c0,0,0-0.1-0.1-0.1c0.2-0.5,0.3-1,0.5-1.5c0,0,0-0.1-0.1-0.1      c0.1-0.1,0.1-0.2,0.2-0.3c0,0,0-0.1,0-0.1c0,0,0-0.1,0-0.1c0.1-0.3,0.3-0.5,0.4-0.7c0-0.1,0-0.2,0-0.2c0,0,0-0.1,0-0.1      c0.1-0.1,0.1-0.2,0.2-0.3c0,0-0.1,0.1-0.1,0.1c0,0-0.1,0-0.1,0c-0.1,0.1-0.1,0.3-0.2,0.4c0,0,0,0,0,0.1c0,0-0.1,0-0.1,0.1      c-0.4,0.7-0.8,1.4-1.2,2.2c0,0,0,0,0,0.1c0,0,0,0.1-0.1,0.2c0,0,0,0.1,0,0.1c-0.2,0.4-0.3,0.8-0.5,1.2c0,0-0.1,0-0.1-0.1      c0,0-0.1,0-0.1,0.1c0,0-0.1,0-0.1-0.1c0,0-0.1,0-0.1,0c-0.1,0-0.3,0-0.4,0c0,0-0.1,0-0.1,0c0,0-0.1,0-0.1,0c0,0-0.1,0-0.1-0.1      c-0.1-0.2-0.2-0.3-0.2-0.5c0,0,0-0.1-0.1-0.1c0,0,0-0.1,0-0.1c-0.1-0.2-0.2-0.4-0.2-0.5c0,0,0-0.1,0-0.1c0,0,0-0.1,0-0.1      c-0.1-0.1-0.2-0.3-0.3-0.4c-0.1,0.1-0.2,0.2-0.3,0.3c0,0-0.1,0-0.1,0.1c0,0,0,0,0,0.1c0,0-0.1,0-0.1,0c-0.1,0.1-0.3,0.3-0.4,0.4      c0,0-0.1,0-0.1,0.1c-0.1,0.2-0.2,0.3-0.3,0.5c0,0-0.1,0-0.1,0c-0.2,0.3-0.3,0.6-0.5,0.8c0,0,0,0.1,0,0.1c0,0,0,0,0,0.1      c0,0,0,0.1,0,0.1c0,0-0.1,0.1-0.1,0.2c0,0,0,0,0,0.1c-0.2,0.4-0.4,0.8-0.6,1.2c0,0,0,0,0,0.1c0,0,0,0.1,0,0.1c0,0,0,0,0,0.1      c-0.1,0.1-0.2,0.2-0.2,0.3c0,0-0.1,0-0.1,0c0,0.1-0.1,0.1-0.1,0.2c0,0-0.1,0-0.1,0.1c0,0-0.1,0.1-0.1,0.2c0,0-0.1,0-0.1,0      c-0.1,0.1-0.2,0.2-0.2,0.3c0,0-0.1,0-0.1,0c0,0,0,0.1-0.1,0.2c0,0-0.1,0-0.1,0c0,0-0.1,0.1-0.1,0.2c0,0-0.1,0-0.1,0      c-0.1,0.1-0.1,0.2-0.2,0.3c0,0,0,0.1,0.1,0.1c-0.1,0.1-0.1,0.3-0.2,0.4c0,0,0,0.1,0.1,0.1c0,0.1-0.1,0.2-0.1,0.3      c0,0,0.1,0,0.1,0.1c0.1-0.1,0.2-0.1,0.3-0.2c0,0,0.1,0,0.1,0c0.2-0.2,0.7,0.1,0.8-0.1c0.1,0.1,0.2,0.2,0.2,0.3      c0.3-0.5,0.4-1.1,0.4-1.2c0,0,0.1,0,0.1,0c0-0.1,0.1-0.1,0.1-0.2c0,0,0.1,0,0.1,0c0.2-0.3,0.5-0.5,0.8-0.8c0,0,0.1,0,0.1-0.1      c0-0.1,0.1-0.1,0.1-0.2c0,0,0.1,0,0.1,0c0.1-0.1,0.1-0.2,0.2-0.3c0,0,0.1,0,0.1,0c0-0.1,0.1-0.1,0.2-0.2c0,0,0.1,0,0.1,0      c0.1-0.1,0.3-0.3,0.4-0.4c0,0,0.1,0,0.1,0c0,0,0.1,0,0.1,0c0,0,0.1,0,0.1,0c0.3-0.1,0.7-0.2,1.1-0.2c0,0,0.1,0,0.1-0.1      c0,0,0.1,0,0.1,0c0.1,0,0.3-0.1,0.4-0.1c0,0,0.1,0,0.1,0c0.3-0.1,0.6-0.1,0.8-0.1c0,0,0.1,0,0.1,0c0.3,0,0.6,0,1,0.1      c0,0,0.1,0,0.1-0.1c0,0,0.1,0,0.1,0.1c0,0,0.1,0,0.1,0c0.2,0,0.4,0.1,0.6,0.1c0,0,0.1,0,0.1-0.1c0,0,0.1,0,0.1,0.1      c0,0,0.1,0,0.1,0c0.1,0,0.2,0.1,0.3,0.1c0,0,0.1,0,0.1-0.1c0.5,0.1,1,0.2,1.5,0.3c0,0,0.1,0,0.1-0.1c0.1,0,0.2,0.1,0.3,0.1      c0,0,0.1,0,0.1,0c0.1,0,0.2,0.1,0.3,0.1c0,0,0.1,0,0.1-0.1c0,0,0.1,0,0.2,0.1c0,0,0.1,0,0.1,0c0.1,0,0.2,0,0.4,0.1      c0,0,0.1,0,0.1,0c0.4,0.2,0.9,0.3,1.3,0.5c0,0,0,0.1,0.1,0.1c0.1,0.1,0.3,0.1,0.4,0.2c0,0,0,0.1,0,0.1c0,0,0,0.1,0.1,0.2      c0,0,0,0,0,0.1c-0.1,0.1-0.2,0.2-0.2,0.3c0,0-0.1,0-0.1,0c-0.4,0.1-2.5,0.5-2.9,0.3c0,0-0.1,0-0.1,0c-0.2-0.1-0.3-0.3-0.5-0.4      c0-0.3,0-0.6,0-0.9c-0.2-0.2-0.4-0.3-0.7-0.4c0,0-0.1,0-0.1,0c0,0-0.1,0-0.1,0c0,0-0.1,0-0.1,0c-0.1,0-0.3-0.1-0.4-0.1      c0,0-0.1,0-0.1,0c-0.1,0-0.2,0-0.3,0c0,0-0.1,0-0.1,0c-0.6-0.1-1.1-0.1-1.7-0.1c0,0-0.1,0-0.1,0.1c-0.3-0.1-0.6-0.1-1-0.1      c0,0-0.1,0-0.1,0c-0.2,0.1-0.3,0.2-0.4,0.3c0,0-0.1,0-0.1,0c0,0-0.1,0-0.1,0.1c0,0-0.1,0-0.1,0c0,0,0,0.1-0.1,0.1c0,0,0,0,0,0.1      c0,0-0.1,0.1-0.1,0.2c0,0,0,0.1,0,0.1c0.2,0.1,0.4,0.3,0.7,0.4c0,0,0.1,0,0.1,0c0.2,0.1,0.3,0.1,0.5,0.2c0,0,0.1,0,0.1,0      c0.1,0,0.2,0.1,0.2,0.2c0,0.1-0.1,0.1-0.1,0.2c0,0-0.1,0-0.1,0c-0.2,0.1-0.3,0.2-0.4,0.3c0,0-0.1,0-0.1,0      c-0.2,0.1-0.4,0.3-0.6,0.5c0,0-0.1,0-0.1,0c0,0,0,0.1-0.1,0.1c0,0-0.1,0-0.1,0c0,0,0,0.1,0,0.1c0,0-0.1,0-0.1,0      c-0.4,0.3-0.9,0.2-1.3,0.2c-0.3,0.1-0.7,0.3-1,0.4c0,0-0.1,0-0.1,0.1c0,0-0.1,0-0.1,0c-0.1,0-0.2,0.1-0.4,0.1c0,0-0.1,0-0.1,0      c0,0.1-0.1,0.3-0.1,0.5c0,0,0,0,0.1,0c0.4,0.1,0.8,0.3,1.2,0.4c0,0,0,0.1,0.1,0.1c-0.1,0.1-0.1,0.3-0.2,0.4      c0.1,0.1,0.2,0.1,0.2,0.2c0,0,0,0.1,0,0.1c0,0.2-0.1,0.5-0.1,0.8c0,0,0,0,0,0.1c-0.1,0.2-0.1,0.4-0.1,0.6c0,0,0,0.1,0,0.1      c-0.1,0.2-0.1,0.2,0,0.3c0,0,0,0.1,0,0.1c0.1,0,0.1,0.1,0.2,0.2C107.2,24,107.2,24,107.2,24.1L107.2,24.1z M111.5,23.5      C111.5,23.5,111.5,23.6,111.5,23.5C111.4,23.6,111.4,23.6,111.5,23.5c-0.1,0.2-0.1,0.3-0.2,0.4c0,0-0.1,0-0.1,0      c-0.1,0.1-0.1,0.3-0.2,0.4c0,0-0.1,0-0.1,0.1c-0.1,0.2-0.2,0.3-0.3,0.5c0,0-0.1,0-0.1,0c0,0-0.1,0-0.1,0.1c0,0-0.1,0-0.1,0      c0,0-0.1,0-0.1,0.1c0,0-0.1,0-0.1-0.1c0,0-0.1,0-0.1,0c0,0-0.1,0-0.1,0c0,0-0.1,0-0.1,0.1c-0.1-0.1-0.2-0.1-0.3-0.1      c0,0-0.1,0-0.1,0c-0.2-0.1-0.5-0.1-0.7-0.2c0,0-0.1,0-0.1,0c-0.4-0.2-0.8-0.5-1.2-0.7L111.5,23.5L111.5,23.5z M116.5,13.5      C116.5,13.5,116.4,13.5,116.5,13.5c-0.2,0.1-0.4,0.2-0.5,0.4c-0.1-0.1-0.2-0.1-0.3-0.1c0.2-0.3,0.4-0.5,0.6-0.7      c0.1,0,0.2,0,0.3,0.1C116.6,13.2,116.5,13.4,116.5,13.5z"/>
	</g>
	<path class="st0" d="M144.6,33.4c0,0,0.1,0,0.1,0c0,0,0-0.1,0-0.1c0.3-0.2,0.6-0.4,0.9-0.5c0.1,0,0.2,0,0.2,0     c0.1,0,0.2,0,0.3,0.1c0-0.1,0-0.1,0-0.2c0.2-0.1,0.4-0.2,0.5-0.3c0,0,0.1,0,0.1,0c0.1,0,0.1-0.1,0.2-0.1c0,0,0.1,0,0.1,0     c0.3-0.1,0.5-0.2,0.8-0.3c0,0,0.1,0,0.1,0.1c0.6-0.1,0.6-0.1,1-0.3c0,0.1,0.1,0.2,0.1,0.3c-0.1,0.2-0.2,0.3-0.3,0.5     c0,0,0,0.1,0,0.1c0,0-0.1,0.1-0.2,0.1c0,0-0.1,0-0.1,0.1c-0.1,0.1-0.1,0.2-0.2,0.3c0,0,0,0,0,0.1c0,0,0.1,0,0.1,0     c0.2,0.1,0.4,0.2,0.6,0.3c0,0,0.1,0,0.1,0c0.2,0.1,0.4,0.2,0.6,0.3c0,0,0.1,0,0.1,0c0,0,0,0,0,0.1c0.1,0,0.1,0,0.1,0.1     c0,0,0.1,0.1,0.2,0.1c0,0,0.1,0,0.1,0c0.1,0,0.3,0,0.4,0.1c0,0,0.1,0,0.1,0c0,0,0.1,0,0.1-0.1c0,0,0.1,0,0.1,0c0,0,0.1,0,0.1-0.1     c0,0,0-0.1,0-0.1c0.1-0.1,0.2-0.1,0.2-0.2c0,0,0-0.1,0-0.1c0.1-0.1,0.2-0.1,0.2-0.2c0,0,0-0.1,0-0.1c0.1-0.1,0.2-0.1,0.2-0.2     c0,0,0-0.1,0-0.1c0.2-0.1,0.3-0.2,0.4-0.2c0,0,0.1,0,0.1,0.1c0.1,0,0.1,0,0.2,0c0,0,0.1,0,0.1,0c0.3,0.2,0.7,0.3,0.7,0.7     c0,0,0,0.1,0,0.1c0,0,0,0.1-0.1,0.1c0,0,0,0.1,0,0.1c0,0.2,0.1,0.4,0.1,0.7c0,0,0,0.1,0,0.1c-0.1,0-0.1,0.1-0.2,0.2     c0,0,0,0.1,0,0.1c-0.1,0.1-0.2,0.3-0.3,0.4c0.2,0.3,0.5,0.5,0.8,0.8c0.1,0,0.1,0,0.1,0.1c0.2,0.4,0.5,0.7,0.7,1.1     c0,0,0,0.1,0,0.1c0,0.1,0,0.2,0,0.4c0,0,0,0.1-0.1,0.1c0,0.1,0,0.1-0.5,0.9c0,0,0,0,0,0.1c-0.2,0.1-0.3,0.3-0.5,0.5     c0,0-0.1,0-0.1,0c-0.3-0.1-0.6-0.2-0.9-0.2c0,0-0.1,0-0.1,0c-0.3-0.1-0.5-0.3-0.7-0.4c0,0-0.1,0-0.1,0c-0.1-0.1-0.2-0.1-0.3-0.1     c0,0-0.1,0-0.1-0.1c-0.5-0.3-0.9-0.9-0.9-1.2c0,0,0-0.1,0-0.1c0-0.1,0-0.2,0-0.3c0,0,0-0.1,0-0.1c0-0.1,0-0.2,0-0.3     c0,0-0.1,0-0.1,0c0-0.1-0.1-0.1-0.1-0.2c-0.2,0.1-0.5,0.1-0.7,0.2c0,0-0.1,0-0.1,0c-0.1-0.1-0.3-0.1-0.4-0.1c0,0-0.1,0-0.1-0.1     c-0.1-0.1-0.2-0.1-0.2-0.2c0,0-0.1,0-0.1-0.1c0,0-0.1,0-0.1,0c0,0-0.1,0-0.1-0.1c-0.1-0.1-0.2-0.1-0.3-0.1c0,0-0.1,0-0.1,0     c-0.1-0.1-0.2-0.2-0.3-0.2c0,0-0.1,0-0.1,0c0,0,0-0.1-0.1-0.1c0-0.1-0.1-0.1-0.1-0.2c-0.1-0.1-0.1-0.1-0.1-0.2     c0.3-0.1,0.6-0.2,0.8-0.3c0,0,0.1,0,0.1,0c0.2-0.1,0.5-0.1,0.8-0.1c0,0,0.1,0,0.1,0c0.2,0,0.3,0,0.5,0.1c0,0,0.1,0,0.1,0.1     c0.2,0.1,0.3,0.1,0.5,0.2c0,0,0.1,0,0.1,0.1c0.1,0.1,0.2,0.1,0.3,0.2c0,0,0.1,0,0.1,0c0.1,0.3,0.1,0.3,0,0.4c0,0,0,0.1,0,0.1     c-0.1,0.1-0.1,0.2,0,0.5c0,0,0.1,0,0.1,0c0.1,0.1,0.3,0.2,0.4,0.3c0,0,0.1,0,0.1,0c0,0,0.1,0.1,0.2,0.1c0.1,0,0.1,0,0.1,0.1     c0.4,0.1,0.8,0.2,1.2,0.3c0,0,0.1,0,0.1,0c0,0,0.1,0,0.1,0c0.2-0.1,0.3-0.2,0.5-0.2c0,0,0-0.1,0-0.1c0.1-0.5,0-0.5-0.1-0.8     c0,0-0.1,0-0.1,0c-0.1-0.1-0.2-0.2-0.3-0.3c0,0-0.1,0-0.1,0c-0.2-0.1-0.3-0.2-0.5-0.3c-0.1,0-0.1,0-0.1,0c0-0.1-0.1-0.1-0.2-0.1     c-0.1,0-0.1,0-0.1,0c0,0,0-0.1-0.1-0.1c0,0-0.1,0-0.1,0c-0.1-0.1-0.2-0.1-0.2-0.2c0,0-0.1,0-0.1,0c-0.2-0.2-0.3-0.4-0.5-0.5     c0,0-0.1,0-0.1-0.1c-0.1-0.2-0.3-0.3-0.5-0.4c0,0-0.1,0-0.1,0c0,0,0-0.1,0-0.1c0,0-0.1,0-0.1-0.1c-0.1,0-0.1-0.1-0.2-0.1     c0,0-0.1,0-0.1,0c-0.3-0.1-0.6-0.2-0.9-0.2c0,0-0.1,0-0.1,0c0,0-0.1,0-0.1,0.1c-0.6,0.2-1.3-0.4-1.7,0.1c-0.4,0-0.7,0-1.1,0.1     c0,0-0.1,0-0.1-0.1c0,0-0.1,0-0.1,0c0,0-0.1,0-0.1-0.1c-0.1-0.1-0.3-0.1-0.4-0.1c0,0-0.1,0-0.1,0c-0.1-0.1-0.2-0.2-0.3-0.2     C144.4,33.5,144.5,33.4,144.6,33.4L144.6,33.4z M140.8,42.7c0.5,0.8,1.1,1.6,1.6,2.4c0,0,0.1,0,0.1,0c0.2,0.2,0.3,0.4,0.5,0.7     c0,0,0.1,0,0.1,0c0,0,0.1,0.1,0.1,0.2c0,0,0.1,0,0.1,0.1c0.2,0.1,0.5,0.1,0.7,0.2c0,0,0.1,0,0.1,0c0.1,0,0.3,0,0.4,0     c0,0,0.1,0,0.1,0c0.2-0.1,0.4-0.1,0.5-0.1c0.1,0,0.1,0,0.2,0c0.3-0.1,0.5-0.2,0.7-0.3c0,0,0.1,0,0.1,0c0.2-0.1,0.4-0.2,0.6-0.2     c0,0,0.1,0,0.1,0c0.2-0.1,0.3-0.2,0.4-0.3c0.1,0,0.1,0,0.1,0.1c0.3-0.2,0.6-0.4,0.8-0.5c0,0,0-0.1,0-0.1c0.2-0.1,0.4-0.2,0.5-0.3     c0,0,0-0.1,0-0.1c0.4-0.5,0.2-0.7,0.5-0.9c0,0,0-0.1,0.1-0.1c0,0,0.1,0,0.1,0c0.1-0.1,0.2-0.2,0.2-0.3c0,0,0-0.1,0.1-0.1     c0.1-0.2,0.2-0.4,0.3-0.6c-0.2,0-0.5-0.1-0.7,0c0,0-0.1,0-0.1,0c0,0-0.1,0.1-0.2,0.1c0,0-0.1,0-0.1,0c0,0-0.1,0.1-0.2,0.1     c0,0-0.1,0-0.1,0c-0.1,0.1-0.2,0.2-0.4,0.2c0,0-0.1,0-0.1,0c-0.1,0-0.1,0.1-0.2,0.1c0,0-0.1,0-0.1,0c0,0,0,0-0.1,0     c0,0-0.1,0-0.1,0c-0.9,0.3-1.8,0.4-2.8,0.6c0,0-0.1,0-0.1,0c-0.8-0.4-1.3-1.2-1.7-1.8c0,0,0-0.1,0.1-0.1     c-0.1-0.1-0.1-0.2-0.2-0.3c0,0,0-0.1-0.1-0.1c-0.1-0.1-0.1-0.2-0.1-0.2c0,0,0-0.1,0-0.1c0,0,0-0.1,0-0.1c0,0,0-0.1,0-0.1     c0.1-0.1,0.1-0.2,0.1-0.3c0,0,0-0.1,0.1-0.1c0,0,0.1,0,0.1,0c0.1-0.1,0.2-0.1,0.3-0.2c0,0,0.1,0,0.1,0c0.1-0.1,0.2-0.1,0.2-0.1     c0,0,0.1,0,0.1,0c0.1,0,0.3-0.1,0.4-0.1c0,0,0.1,0,0.1,0c0,0,0.1,0,0.1,0c0,0,0.1,0,0.1,0c0.3,0,0.5-0.1,0.8-0.1c0,0,0.1,0,0.1,0     c0.1,0,0.1-0.1,0.2-0.1c0,0,0.1,0,0.1,0c0.1-0.1,0.2-0.1,0.2-0.1c0,0,0.1,0,0.1,0c0.1-0.1,0.2-0.2,0.4-0.2c0,0,0.1,0,0.1,0     c0.4-0.3,0.4-0.3,0.5-0.5c-0.1-0.1-0.2-0.2-0.3-0.2c0,0-0.1,0-0.1,0c-0.1,0-0.2,0-0.3,0.1c0,0-0.1,0-0.1,0c0,0-0.1,0-0.1,0.1     c0,0-0.1,0-0.1-0.1c-0.2,0-0.4-0.1-0.6-0.1c0,0-0.1,0-0.1,0c0,0-0.1,0-0.1,0c-0.2,0-0.5,0-0.7,0c0,0-0.1,0-0.1,0     c-0.2,0-0.4,0.1-0.6,0.1c0,0-0.1,0-0.1,0c-0.2,0-0.4,0.1-0.6,0.2c0,0-0.1,0-0.1,0c0,0-0.1,0.1-0.2,0.1c0,0-0.1,0-0.1-0.1     c-0.1,0-0.2,0.1-0.2,0.2c0,0-0.1,0-0.1,0c-0.1,0.1-0.3,0.2-0.4,0.3c-0.1,0-0.1,0-0.1,0c-0.7,0.5-0.7,0.5-1,0.8c0,0,0,0.1,0,0.1     c-0.1,0.1-0.2,0.2-0.3,0.4c0,0,0,0,0,0.1c0,0.2-0.1,0.4-0.1,0.6c0,0,0,0,0,0.1c0,0,0,0.1,0,0.1c0.1,0.1,0.1,0.2,0.1,0.3     c0,0,0,0.1-0.1,0.1c0,0.1,0.1,0.2,0.2,0.2c0,0,0,0,0,0.1c0,0.1,0.1,0.1,0.2,0.2c0,0,0,0.1-0.1,0.1c0.1,0.1,0.1,0.2,0.2,0.3     C140.8,42.6,140.8,42.7,140.8,42.7L140.8,42.7z M137.3,36.4c0.1,0.1,0.2,0.2,0.3,0.3c0,0,0.1,0,0.1,0c0.1,0,0.2,0,0.2,0.1     c0,0,0.1,0,0.1,0c0,0,0.1,0,0.1,0c0.2,0,0.4,0.1,0.5,0.2c0,0,0.1,0,0.1,0c0.2,0,0.4,0.1,0.6,0.2c0,0,0.1,0,0.1,0     c0.2,0,0.3,0,0.5,0.1c0,0,0.1,0,0.1,0c0.2,0,0.3,0,0.5,0c0,0,0.1,0,0.1,0c0,0,0.1,0,0.1,0.1c0.2,0,0.3,0,0.4,0c0,0,0.1,0,0.1,0     c0.2,0,0.3,0,0.4,0c0,0,0.1,0,0.1,0.1c0.1,0,0.2,0,0.3,0c0,0,0.1,0,0.1,0c0.7,0,1.3,0.1,2,0.1c0,0,0.1,0,0.1,0c0.1,0,0.2,0,0.2,0     c0,0,0.1,0,0.1,0c0.1,0,0.2,0,0.2,0c0,0,0.1,0,0.1,0c0.2,0,0.4,0.1,0.6,0.2c0,0,0.1,0,0.1,0c0,0,0.1,0,0.1,0.1c0,0,0.1,0,0.1,0     c0.1,0,0.1,0,0.1,0.1c0,0,0.1,0,0.1,0c0,0,0.1,0,0.1,0c0.1,0,0.1,0,0.1,0c0.1,0,0.2,0,0.2,0.1c0,0,0.1,0,0.1,0c0,0,0.1,0,0.1-0.1     c0,0,0.1,0,0.1,0.1c0,0,0.1,0.1,0.1,0.2c0,0,0.1,0,0.1,0c0,0,0,0.1,0.1,0.1c0,0,0.1,0,0.1,0c0,0,0,0.1,0.1,0.1c0,0,0.1,0,0.1,0     c0,0,0,0.1,0.1,0.1c0,0,0.1,0,0.1,0c0,0,0,0.1,0.1,0.1c0,0,0.1,0,0.1,0c0,0,0.1,0.1,0.2,0.1c0,0,0.1,0,0.1,0c0,0,0.1,0,0.1,0     c0,0,0.1,0,0.1,0c0.1-0.2,0.3-0.3,0.4-0.5c0,0,0-0.1,0-0.1c-0.1-0.2-0.1-0.4-0.2-0.6c0,0-0.1,0-0.1,0c0,0,0-0.1,0-0.1     c0,0-0.1,0-0.1-0.1c-0.3-0.2-0.3-0.2-1.2-0.3c0,0-0.1,0-0.1,0c0,0-0.1,0-0.1,0c0-0.1-0.1-0.1-0.2-0.1c0,0-0.1,0-0.1,0     c-0.1-0.1-0.2-0.2-0.3-0.2c0,0-0.1,0-0.1-0.1c0,0,0-0.1,0-0.1c0,0-0.1,0-0.1,0c-0.2-0.2-0.4-0.4-0.6-0.5c0,0-0.1,0-0.1,0     c-0.1-0.1-0.2-0.2-0.3-0.3c0,0,0-0.1,0-0.1c0-0.1,0.3-0.2,0.5-0.2c0,0,0.1,0,0.1,0.1c0.1,0,0.3,0,0.4,0.1     c-0.1-0.1-0.2-0.2-0.4-0.3c0,0-0.1,0-0.1,0c-0.2,0-0.4-0.1-0.5-0.1c0,0-0.1,0-0.1,0c-0.2,0.1-0.5,0.1-0.7,0.2c0,0-0.1,0-0.1-0.1     c0,0-0.1,0.1-0.1,0.1c-0.1,0-0.1,0-0.1,0c-0.2,0.1-0.5,0.1-0.7,0.2c0,0,0,0-0.1,0c0,0-0.1,0-0.1,0.1c0.1,0.3,0.4,0.5,0.8,0.9     c0,0,0,0.1,0.1,0.1c-0.1,0.2-0.6,0-0.8,0c0,0-0.1,0-0.1,0c-0.1-0.1-0.2,0-0.2-0.1c-0.1,0-0.1,0-0.1,0c-0.2,0-0.4-0.1-0.6-0.1     c0,0-0.1,0-0.1,0c0,0-0.1,0-0.1-0.1c0,0-0.1,0-0.1,0c0,0-0.1,0-0.1-0.1c0,0-0.1,0-0.1,0c-0.1,0-0.2-0.1-0.2-0.1     c0,0-0.1,0-0.1-0.1c-0.2,0-0.4-0.1-0.6-0.1c0,0-0.1,0-0.1,0c-0.8-0.1-1.4-0.3-2.2-0.2c0,0-0.1,0-0.1,0c0,0-0.1,0-0.1,0.1     c0,0-0.1,0-0.1-0.1c0,0-0.1,0.1-0.2,0.1c0,0-0.1,0-0.1,0c-0.1,0-0.1,0.1-0.2,0.1C137.3,36.3,137.3,36.4,137.3,36.4L137.3,36.4z      M136.2,33.7c0,0.1,0,0.3,0,0.4c0.1,0.1,0.3,0.2,0.4,0.3c0,0,0.1,0,0.1,0c0,0,0.1,0,0.1,0c0,0,0.1,0,0.1,0c0,0,0.1,0,0.1,0     c0,0,0.1,0,0.1,0c0.1-0.1,0.2-0.1,0.2-0.1c0,0,0.1,0,0.1,0c0.3-0.2,0.6-0.5,0.9-0.7c0,0,0-0.1,0.1-0.1c0.4-0.3,0.8-0.5,1.3-0.8     c0,0,0-0.1,0-0.1c0,0,0.1,0,0.1,0c0,0,0.1,0,0.1-0.1c0.7-0.5,1.3-0.9,2-1.3c0,0,0.1,0,0.1-0.1c0,0,0.1,0,0.1,0     c0.1-0.1,0.2-0.1,0.3-0.1c0,0,0-0.1,0-0.1c0,0,0.1,0,0.1,0c0.2-0.1,0.4-0.2,0.6-0.2c0,0,0.1,0,0.1,0c0,0.1,0.1,0.2,0.2,0.2     c-0.2,0.1-0.4,0.2-0.6,0.4c0,0,0,0.1-0.1,0.1c0,0-0.1,0.1-0.2,0.1c0,0,0,0.1,0,0.1c0.1,0.1,0.2,0.2,0.3,0.3c0,0,0.1,0,0.1,0     c0.4,0,0.8-0.1,1.2-0.1c0,0,0.1,0,0.1,0c0,0,0.1,0,0.1-0.1c0,0,0.1,0,0.1,0.1c0.2-0.1,0.4-0.1,0.5-0.1c0,0,0.1,0,0.1-0.1     c0,0,0.1,0,0.1,0c0.2-0.1,0.3-0.2,0.4-0.2c0,0,0-0.1,0-0.1c0.2-0.3,0.4-0.7,0.7-1c0,0,0-0.1,0.1-0.1c0,0,0.1,0,0.1,0     c0,0,0-0.1,0-0.1c0,0,0-0.1,0-0.1c0.2-0.1,0.3-0.1,0.5-0.1c0,0,0.1,0,0.1,0c0.3,0,0.6,0.1,0.8,0.1c0,0,0.1,0,0.1,0.1     c0.5-0.1,0.8-0.2,1-0.4c0,0,0-0.1,0.1-0.1c0.1-0.3,0.1-0.3,0.1-0.6c0,0,0-0.1,0.1-0.1c0-0.1-0.1-0.1-0.1-0.2c0,0-0.1,0-0.1,0     c-0.1-0.1-1-0.5-1.2-0.5c0,0-0.1,0-0.1,0c-0.4-0.1-0.4-0.1-1.1,0.1c0,0-0.1,0-0.1-0.1c-0.1,0.1-0.2,0.2-0.4,0.2     c0.1,0.1,0.1,0.2,0.1,0.3c0,0,0,0.1,0.1,0.1c0.2,0.5,0.2,0.5,0.2,0.6c0,0-0.1,0-0.1,0c-0.3,0.2-0.7,0.4-1.1,0.7c0,0,0,0-0.1,0     c-0.1,0-0.1,0-0.2,0c-0.1,0.1-0.2,0.1-0.3,0.2c0,0-0.1,0-0.1,0c0.1-0.1,0.2-0.2,0.2-0.3c0,0,0-0.1,0.1-0.1     c0.3-0.3,0.3-0.3,0.4-0.6c0-0.1,0-0.1,0-0.1c-0.1-0.2-0.2-0.3-0.3-0.4c0,0-0.1,0-0.1,0c-0.2,0-0.4,0-0.5,0c0,0-0.1,0-0.1,0     c0,0-0.1,0.1-0.1,0.1c0,0-0.1,0-0.1-0.1c-0.1,0.1-0.3,0.2-0.5,0.3c0,0-0.1,0-0.1,0.1c0,0,0,0-0.1,0c0,0-0.1,0-0.1,0.1     c0,0-0.1,0.1-0.2,0.1c0,0-0.1,0-0.1,0c-0.7,0.4-1.4,0.8-2.2,1.2c0,0-0.1,0-0.1,0c-0.1,0.1-0.2,0.2-0.4,0.2c-0.1,0-0.1,0-0.1,0     c-0.1,0-0.1,0.1-0.2,0.1c0,0-0.1,0-0.1,0c-0.1,0-0.1,0.1-0.2,0.1c-0.1,0-0.1,0-0.1,0c0,0-0.1,0.1-0.2,0.1c-0.1,0-0.2,0-0.2,0.1     c-0.2,0.1-0.4,0.2-0.6,0.4c0,0-0.1,0-0.1,0.1c0,0,0,0-0.1,0c0,0-0.1,0-0.1,0.1c0,0,0,0-0.1,0c0,0-0.1,0-0.1,0     c-0.4,0.2-0.8,0.5-1.2,0.8c0,0,0,0.1,0,0.1c0,0-0.1,0-0.1,0.1c-0.1,0-0.1,0.1-0.2,0.1c0,0,0,0.1-0.1,0.1c0,0,0,0-0.1,0     c-0.1,0.2-0.2,0.3-0.3,0.5C136.3,33.6,136.2,33.7,136.2,33.7z"/>
	<path class="st0" d="M31.7,42.8c-0.1,0-0.1,0.1-0.2,0.1c-0.4,0.4-0.9,0.8-1.2,1.3c-0.9-0.3-1-0.4-1.3-0.7c0-0.1,0-0.1,0-0.2     c-0.3-0.5-0.2-0.3-0.1-0.7c0-0.1,0-0.1,0-0.1c0-0.5,0-1,0-1.6c0-0.1,0-0.1,0-0.2c0-0.4-0.1-0.9-0.1-1.3c0,0,0-0.1,0-0.1     c-0.1-0.3-0.1-0.6-0.2-0.9c0-0.1,0-0.1,0-0.1c-0.1-0.1-0.1-0.2-0.1-0.3c0,0,0-0.1,0-0.1c-0.1-0.1-0.1-0.3-0.1-0.4     c0,0,0-0.1,0-0.1c-0.1-0.1-0.1-0.2-0.1-0.3c0-0.1,0-0.1,0-0.2c0,0,0-0.1,0-0.1c-0.1-0.1-0.1-0.2-0.1-0.3c0-0.1,0-0.1,0-0.1     c-0.1-0.1-0.1-0.3-0.1-0.4c0,0,0-0.1,0-0.2c-0.1-0.2-0.2-0.4-0.3-0.6c0-0.1,0-0.1,0-0.2c0,0-0.1,0-0.1,0     c-0.2-0.2-0.4-0.4-0.6-0.6c0,0,0-0.1,0-0.2c-0.3-0.6-0.3-0.3,0-0.9c0-0.1,0-0.1,0-0.2c0.2-0.2,0.4-0.4,0.7-0.6c0,0,0,0,0.1,0     c0,0,0-0.1,0.1-0.1c0,0,0.1,0,0.1,0c0.3-0.1,0.6-0.2,0.9-0.3c0,0,0.1,0,0.1,0c0,0,0.1,0,0.1,0c0,0,0.1,0,0.1,0.1c0,0,0,0,0.1,0     c0.2,0.2,0.4,0.4,0.6,0.5c0,0,0,0.1,0,0.1c0,0.1,0.1,0.2,0.1,0.3c0,0,0,0.1,0,0.1c0,0,0.1,0,0.1,0.1c0,0,0,0.1,0,0.1     c0,0,0.1,0,0.1,0.1c0,0,0,0.1,0,0.1c0,0.1,0.1,0.2,0.1,0.4c0,0,0,0.1,0,0.1c0,0.1,0,0.1,0.1,0.2c0,0,0,0.1,0,0.1c0,0,0,0.1,0,0.1     c0,0.4,0,0.8,0.3,1.2c0,0,0.1,0,0.1,0c0.1-0.1,0.2-0.3,0.4-0.4c0-0.1,0-0.1,0-0.1c0.1-0.2,0.2-0.4,0.3-0.6     c-0.1-0.1-0.1-0.2-0.1-0.3c0,0,0-0.1,0-0.1c-0.3-0.6-0.6-1.2-0.9-1.9c0.1-0.2,0.2-0.5,0.3-0.7c0,0,0-0.1,0-0.1     c0.1-0.1,0.2-0.2,0.4-0.3c0,0,0,0,0.1,0c0.1,0,0.2-0.1,0.3-0.1c0,0,0.1,0,0.1,0c0,0,0.1,0,0.1,0c0,0,0.1,0,0.1,0c0,0,0.1,0,0.1,0     c0,0,0.1,0,0.1,0c0.2,0.1,0.4,0.1,0.6,0.1c0,0,0.1,0,0.1,0c0.1,0,0.2,0.1,0.3,0.1c0,0,0,0,0.1,0c0,0,0.1,0,0.1,0.1     c0,0,0.1,0,0.1,0c0,0,0.1,0,0.1,0.1c0,0,0.1,0,0.1,0c0,0,0.1,0.1,0.1,0.1c0.1,0,0.1,0,0.2,0c0.1,0,0.1,0.1,0.2,0.2     c0,0,0.1,0,0.1,0c0.4,0.4,0.8,0.7,1.2,1c0,0.3,0,0.6,0.1,0.9c-0.1,0-0.1,0.1-0.2,0.1c-0.1,0-0.1,0-0.1,0     c-0.1,0.1-0.2,0.2-0.3,0.3c-0.1,0-0.1,0-0.2,0c-0.1,0.3-0.2,0.6-0.3,0.9c0,0.1,0,0.1,0,0.1c-0.2,0.5-0.4,1-0.5,1.5     c0,0.1,0,0.1,0,0.2c0,0,0,0.1,0,0.1c0,0,0,0.1,0,0.1c0,0.1-0.1,0.1-0.1,0.1c0,0.1,0,0.1,0,0.1c0,0.1-0.1,0.1-0.1,0.1     c0,0,0,0.1,0,0.1c0,0,0,0.1,0,0.1c0,0,0,0.1,0,0.2c-0.1,0.1-0.1,0.2-0.2,0.3c0,0.1,0,0.1,0,0.1c-0.1,0.2-0.2,0.3-0.2,0.5     c0,0,0,0.1,0,0.1c0,0.1,0,0.2,0,0.3c0,0,0,0.1,0,0.2c-0.1,0.3-0.1,0.6-0.2,0.8c-0.1-0.1-0.1-0.1-0.2-0.2c-0.1,0-0.1,0-0.1,0     c-0.1,0.3-0.2,0.5-0.3,0.8c0,0,0,0.1,0,0.1c0,0,0,0.1-0.1,0.1c0,0.1,0,0.1,0,0.1c-0.1,0.1-0.1,0.2-0.2,0.3c0,0.1,0,0.1,0,0.2     C32,42,31.8,42.4,31.7,42.8L31.7,42.8z M37.5,46.6c0.2-0.2,0.4-0.4,0.6-0.7c0-0.1,0-0.1,0-0.2c0.4-0.8,0-1.1-0.5-1.7     c0.1-0.1,0.3-0.1,0.5-0.2c0,0,0.1,0,0.1,0c0.2,0,0.4,0,0.6-0.1c0,0,0,0,0-0.1c0,0,0-0.1,0.1-0.1c0,0,0,0,0-0.1c0,0,0-0.1,0.1-0.1     c0.2-0.2,0.4-0.4,0.6-0.7c0,0,0-0.1,0-0.1c0,0,0.1-0.1,0.1-0.1c0,0,0-0.1,0-0.1c0,0,0,0,0-0.1c0-0.1,0-0.1,0-0.2     c0.3-0.8,0.3-0.8,0.6-1.2c0-0.1,0-0.1,0.1-0.2c0.2-0.2,0.3-0.4,0.5-0.6c0,0,0-0.1,0-0.2c0.1-0.1,0.1-0.2,0.2-0.3c0,0,0-0.1,0-0.1     c0.1-0.2,0.1-0.4,0.2-0.5c0,0-0.1,0-0.1-0.1c-0.1,0-0.1-0.1-0.1-0.1c0-0.1,0-0.1,0-0.1c-0.2-0.1-0.4-0.3-0.6-0.4     c-0.1,0-0.1,0-0.1,0c-0.2,0.1-0.3,0.1-0.4,0.2c-0.1,0-0.1,0-0.1,0c-0.1-0.1-0.2-0.1-0.2-0.2c-0.1,0-0.1,0-0.1,0     c0,0-0.1,0-0.1-0.1c-0.1,0-0.1-0.1-0.1-0.1c0,0-0.1,0-0.1,0c0,0-0.1,0-0.1-0.1c-0.1,0-0.1,0-0.1,0c-0.1,0-0.2,0-0.2-0.1     c0,0,0-0.1,0-0.1c-0.1-0.2-0.2-0.4-0.3-0.6c0,0,0-0.1,0-0.1c0-0.1-0.1-0.1-0.1-0.2c0,0,0-0.1,0-0.1c0,0-0.1,0-0.1-0.1     c0,0,0-0.1,0-0.1c0,0-0.1,0-0.1-0.1c0,0,0-0.1,0-0.1c-0.1-0.1-0.1-0.2-0.1-0.4c0-0.1,0-0.1,0-0.2c-0.1-0.1-0.1-0.3-0.1-0.4     c0,0,0-0.1,0-0.1c-0.2-0.2-0.3-0.4-0.5-0.5c0,0-0.1,0-0.1,0c-0.1,0-0.2,0-0.3,0c0,0-0.1,0-0.1,0c0,0,0,0.1,0,0.1c0,0-0.1,0-0.2,0     c-0.5,0.2-0.7,0.6-0.9,0.9c-0.1,0-0.1,0-0.1,0c0,0.1-0.1,0.2-0.1,0.3c0,0,0,0.1,0,0.1c0,0,0,0.1-0.1,0.1c0,0-0.1,0-0.1,0     c-0.4,0.3-0.4,0.4-0.5,0.7c0,0,0,0.1,0,0.1c0,0,0,0.1,0,0.1c0,0,0,0.1,0,0.1c0,0,0,0.1,0,0.1c0,0.1,0,0.1,0,0.2     c-0.1,0.1-0.1,0.3-0.2,0.4c0,0,0,0.1,0,0.1c-0.3,0.5-0.3,0.4-0.4,0.9c0,0,0,0.1,0,0.1c0,0.1,0,0.2,0,0.2c0,0,0,0.1,0,0.1     c-0.1,0.5-0.2,1-0.2,1.5c0,0,0,0.1,0,0.1c-0.1,0.4-0.1,0.9-0.1,1.3c0,0,0,0.1,0,0.1c0,0.1-0.1,0.1-0.1,0.1c0,0-0.1,0-0.2,0     c0,0,0,0.1,0,0.1c-0.1,0-0.1,0-0.1,0c0,0-0.1,0-0.1,0c0,0-0.1,0-0.1,0c-0.5-0.3-0.3-0.5-0.4-0.8c-0.1,0.1-0.1,0.1-0.4,0.9     c0,0,0,0.1,0,0.1c0,0-0.1,0-0.1,0c0,0,0,0.1-0.1,0.1c-0.1,0-0.1,0-0.1,0c-0.1,0.3-0.1,0.3,0,0.7c0,0,0,0.1,0,0.1     c0,0,0.1,0,0.1,0.1c0,0,0,0.1,0,0.1c0,0,0,0.1,0,0.1c0,0,0,0.1,0,0.2c0,0,0,0,0.1,0c0,0,0.1,0,0.2,0c0,0,0,0.1,0,0.1     c0,0.1,0,0.1,0,0.1c0.1,0.1,0.1,0.2,0.2,0.3c0.1,0,0.1,0,0.2,0c0,0,0,0,0.1,0c0,0,0.1,0,0.1,0.1c0,0,0,0,0.1,0c0,0,0.1,0,0.1,0.1     c0.4,0.3,0.9,0.7,1.4,1c0,0,0.1,0,0.1,0c0.1,0,0.1,0.1,0.2,0.2c0,0,0.1,0,0.1,0c0.1,0,0.1,0.1,0.2,0.1c0,0,0.1,0,0.1,0     c0,0,0.1,0,0.1,0c0.1,0,0.2,0,0.3,0.1c0,0,0.1,0,0.1,0c0.1,0.1,0.3,0.1,0.5,0.2c0,0,0.1,0,0.1,0c0.1,0,0.1,0,0.2,0     c0.2,0,0.3,0,0.5,0c0,0,0.1,0,0.1,0c0-0.1,0.1-0.1,0.2-0.2C37.4,46.6,37.5,46.6,37.5,46.6L37.5,46.6z M32.6,44.1     C32.6,44.1,32.7,44.1,32.6,44.1c0-0.1,0-0.1,0-0.2C32.6,44,32.6,44,32.6,44.1C32.6,44.1,32.6,44.1,32.6,44.1L32.6,44.1z      M35.6,43.3c0.1,0,0.1,0.1,0.2,0.2c0.1-0.2,0.1-0.4,0.2-0.5c0-0.1,0-0.1,0-0.2c0-0.2,0-0.3,0-0.5c0.4-0.5,0.5-0.7,0.2-1.3     c0,0,0-0.1,0-0.1c-0.1-0.1-0.2-0.1-0.2-0.2c0,0,0-0.1,0-0.1c-0.1,0-0.1-0.1-0.1-0.1c0,0,0-0.1,0-0.1c-0.2-0.2-0.3-0.3-0.5-0.5     c0,0.2,0,0.3,0.1,0.4c0,0,0,0.1,0,0.1c0,0,0,0.1,0,0.1c0,0.4-0.3,1.1-0.4,1.3c0.4,0.6,0.4,0.6,0.3,0.7c0,0,0,0.1,0,0.1     c0,0.1,0.1,0.1,0.1,0.2c0,0,0,0.1,0,0.1c0,0,0.1,0.1,0.1,0.1C35.6,43.2,35.6,43.2,35.6,43.3z"/>
	<path class="st0" d="M60.7,19.1C60.7,19.1,60.7,19,60.7,19.1c-0.1-0.3-0.2-0.5-0.2-0.7c0.4-0.1,0.4-0.1,0.5,0c0,0,0.1,0,0.1,0.1     c0,0,0,0,0,0.1c0,0,0.1,0.1,0.1,0.1c0,0.1,0.1,0.2,0.1,0.3c0,0,0,0,0,0.1c0.1,0.2,0.2,0.4,0.3,0.6c-0.2,0-0.4,0.1-0.6,0.1     C60.9,19.5,60.8,19.3,60.7,19.1L60.7,19.1z M63.1,24.9c0,0.3,0.1,0.7,0.5,1.1c0.4-0.1,0.7-0.3,1.1-0.4c0,0,0-0.1,0.1-0.1     c0.1-0.2,0.2-0.3,0.3-0.5c0,0,0-0.1,0.1-0.1c0-0.1,0-0.1-0.1-0.2c0,0,0-0.1,0-0.1c0-0.1,0-0.1-0.1-0.2c0,0,0-0.1,0.1-0.1     c-0.1-0.3-0.1-0.6-0.1-1c0,0,0-0.1,0-0.1c0,0,0-0.1,0-0.1c0,0,0-0.1,0-0.1c0,0,0-0.1,0-0.1c0,0,0-0.1,0-0.1c0,0,0-0.1,0-0.1     c0,0,0-0.1,0-0.1c-0.1-0.2-0.1-0.4-0.2-0.6c0,0,0-0.1,0.1-0.1c0-0.1-0.1-0.2-0.1-0.2c0,0-0.1,0-0.1-0.1c0,0,0-0.1,0.1-0.1     c0,0,0-0.1,0-0.1c-0.1-0.1-0.1-0.1-0.2-0.1c0-0.1,0-0.1-0.1-0.2c0,0,0-0.1,0-0.1c0,0,0-0.1,0-0.1c0,0,0-0.1,0.1-0.1     c0,0,0-0.1,0-0.1c0,0,0-0.1,0-0.1c-0.1-0.3-0.2-0.6-0.3-0.8c0,0-0.1,0-0.1,0c0.1,0.3,0.2,0.7,0.3,1c0,0-0.1,0.1-0.1,0.1     c-0.1,0-0.1,0-0.2,0.1c-0.3-0.8-0.6-1.7-0.9-2.5c0,0-0.1,0-0.1,0c0,0,0-0.1,0-0.1c-0.1-0.2-0.2-0.5-0.2-0.7     c0.1,0,0.3-0.1,0.5-0.3c0.3-0.1,0.3-0.1,0.6,0c0,0,0.1,0.1,0.1,0.1c0.1,0.1,0.1,0.2,0.2,0.3c0,0,0,0,0,0.1c0,0,0,0.1,0,0.2     c0,0,0,0.1,0,0.1c0,0,0,0.1,0.1,0.2c0,0-0.1,0.1-0.1,0.1c0,0,0,0.1,0,0.1c0,0,0.1,0,0.1,0c0.2,0.2,0.3,0.5,0.5,0.8     c0,0,0.1,0,0.1,0.1c0.1,0.1,0.3,0.1,0.5,0.2c0,0,0,0,0.1,0c0.1,0,0.2,0,0.4,0.1c0,0,0.1,0,0.1,0.1c0.1,0,0.1,0,0.2-0.1     c0,0,0-0.1,0.1-0.1c0,0,0-0.1,0-0.1c0,0,0-0.1,0.1-0.1c-0.2-0.4-0.3-0.8-0.4-1.2c0,0-0.1,0-0.1-0.1c-0.1-0.1-0.1-0.1-0.2-0.2     c0,0-0.1,0-0.1-0.1c-0.1-0.1-0.1-0.2-0.2-0.3c0,0-0.1,0-0.1,0c-0.1-0.3-0.2-0.6-0.3-0.9c0,0-0.1,0-0.1,0c0,0.1-0.1,0.2-0.1,0.3     c0,0-0.1,0.1-0.1,0.1c-0.1,0.1-0.1,0.1-0.1,0.2c0,0-0.1,0-0.1-0.1c-0.6,0.1-1.1,0.2-1.3,0.1c0,0,0-0.1,0-0.1c0-0.1,0-0.2,0-0.3     c0,0,0-0.1,0-0.1c0-0.1,0-0.1-0.1-0.2c0,0,0-0.1,0.1-0.1C63.1,16.2,63,16,63,15.9c0,0,0-0.1,0-0.1c0-0.1,0-0.1-0.1-0.2     c0,0-0.1,0-0.1-0.1c-0.1-0.1-0.1-0.2-0.2-0.3c0,0-0.1,0-0.1,0c-0.3-0.1-0.6-0.1-0.8-0.2c0,0-0.1,0-0.1,0c-0.1,0-0.3,0-0.4,0     c0,0,0,0.1,0,0.1c0,0.1,0.1,0.1,0.1,0.2c0,0,0.1,0,0.1,0.1c0.1,0.2,0.2,0.5,0.3,0.7c0,0,0,0.1,0,0.1c0,0,0,0,0,0.1     c0,0,0,0.1,0,0.1c0,0,0,0,0,0.1c0,0,0,0.1,0,0.1c0,0,0,0.1,0.1,0.2c0,0,0,0,0,0.1c0,0,0,0.1,0,0.1c0,0,0,0,0,0.1c0,0,0,0.1,0,0.1     c0,0,0,0,0,0.1c0,0,0,0.1,0,0.1c0,0,0,0,0,0.1c0,0,0,0.1-0.1,0.1c0,0,0,0,0,0.1c0,0,0.1,0.1,0.2,0.1c0,0,0,0.1,0,0.1     c0,0,0,0.1,0,0.2c0.2,0.5,0.4,1,0.5,1.5c0,0,0,0,0,0.1c0,0.1,0.1,0.2,0.1,0.3c0,0-0.1,0.1,0,0.1c0.1,0.4,0.3,0.8,0.4,1.2     c0,0,0,0.1-0.1,0.1c0,0,0,0.1,0.1,0.2c0,0-0.1,0.1,0,0.1c0,0.1,0.1,0.2,0.1,0.3c0,0-0.1,0.1-0.1,0.1c0,0,0,0.1,0.1,0.2     c0,0,0,0.1,0,0.1c0,0,0,0.1,0.1,0.2c0,0-0.1,0.1-0.1,0.1c0,0.1,0.1,0.2,0.1,0.3c0,0-0.1,0.1,0,0.1c0,0.4,0,0.9,0.1,1.3     c0,0,0,0.1-0.1,0.1c0,0-0.1,0.1,0,0.1c0,0,0,0.1-0.1,0.1c0,0-0.1,0.1,0,0.1C63.1,24.5,63.1,24.7,63.1,24.9     C63.1,24.8,63.1,24.8,63.1,24.9L63.1,24.9z M72.8,21.2c0,0-0.1,0-0.1-0.1c-0.1-0.1-0.2-0.2-0.3-0.3c0,0-0.1,0-0.1,0     c-0.3-0.2-0.6-0.4-0.9-0.6c0.5-0.8,0.5-0.8,0.5-1c0,0,0-0.1,0.1-0.1c-0.1-0.3-0.2-0.6-0.3-0.8c0,0-0.1,0-0.1,0     c-0.2-0.5-0.4-1-0.5-1.5c0,0,0-0.1,0-0.1c0,0,0-0.1,0-0.1c-0.1-0.2-0.2-0.3-0.2-0.5c0,0-0.1,0-0.1-0.1c-0.1,0-0.2,0.1-0.2,0.2     c0,0.1,0,0.2,0,0.2c0,0-0.1,0.1,0,0.1c0,0.1,0,0.2,0,0.3c-0.2,0.1-0.2,0.1-0.5,0.1c0,0-0.1,0-0.1,0c0,0-0.1,0-0.1,0     c0,0-0.1,0-0.1-0.1c0,0-0.1,0-0.1,0c0,0-0.1,0-0.1-0.1c0,0-0.1,0-0.1,0c0,0,0-0.1,0-0.1c0,0-0.1,0-0.1,0c0-0.1-0.1-0.2-0.1-0.3     c0,0-0.1,0-0.1,0c0-0.1-0.1-0.2-0.1-0.3c0,0-0.1,0-0.1,0c-0.2-0.2-0.4-0.3-0.5-0.5c0,0-0.1,0-0.1,0c0,0-0.1,0.1,0,0.1     c-0.2,0.1-0.3,0.2-0.4,0.2c0,0.2,0.1,0.5,0.2,0.7c0,0,0,0,0,0.1c0,0,0,0.1,0,0.1c0,0,0,0,0,0.1c0,0,0,0.1,0,0.1c0,0,0,0,0,0.1     c0,0,0,0.1,0.1,0.2c0.1,0.4,0.3,0.7,0.5,1.1c0,0,0,0,0,0.1c0,0,0,0.1,0,0.1c0,0,0,0,0,0.1c0,0,0,0.1,0,0.1c0,0,0.1,0,0.1,0     c0.1,0.2,0.2,0.4,0.2,0.7c0,0,0,0.1,0,0.1c0,0,0,0,0.1,0c0,0,0,0.1,0,0.1c0,0-0.1,0.1,0,0.1c0,0,0,0.1,0,0.1c0,0,0,0,0,0.1     c0,0,0,0.1,0,0.1c0,0.2,0.1,0.5,0.2,0.8c0,0,0,0.1,0,0.1c0,0.1-0.1,0.2-0.1,0.4c0,0-0.1,0.1-0.1,0.1c0,0,0,0.1,0,0.1     c-0.1,0-0.2,0.1-0.3,0.1c0,0-0.1,0-0.1-0.1c0,0-0.1,0-0.1,0C68.2,21.1,68,21,67.8,21c0,0-0.1,0-0.1,0c0,0,0-0.1,0-0.1     c0,0-0.1,0-0.1,0c0-0.1-0.1-0.2-0.1-0.3c0,0-0.1,0-0.1,0c0-0.1-0.1-0.2-0.1-0.3c0,0,0-0.1,0-0.1c0,0,0-0.1,0-0.1     c-0.1-0.3-0.2-0.6-0.3-0.9c0,0,0-0.1,0-0.1c-0.2-0.4-0.3-0.8-0.4-1.2c0,0,0-0.1,0.1-0.1c0-0.1,0-0.1-0.1-0.2c0,0,0-0.1,0-0.1     c0,0,0-0.1,0-0.1c0,0,0-0.1,0-0.1c0,0,0-0.1,0-0.1c-0.1-0.3-0.2-0.6-0.3-0.8c0,0,0-0.1,0-0.1c0,0,0-0.1,0-0.1c0,0,0-0.1,0.1-0.1     c-0.1-0.3-0.2-0.6-0.3-0.9c0,0,0-0.1,0-0.1c-0.1-0.2-0.2-0.5-0.2-0.7c0-0.1,0-0.1-0.1-0.2c-0.1-0.2-0.1-0.3-0.2-0.4     c0,0-0.1,0-0.1,0c0,0,0-0.1,0-0.1c0,0-0.1,0-0.1,0c0-0.2,0-0.3,0-0.5c0,0,0-0.1,0-0.1c0.2-0.2,0.4-0.4,0.6-0.5c0,0,0.1,0,0.1,0.1     c0.2-0.1,0.3,0.1,0.5,0.2c0,0,0,0,0.1,0c0,0,0,0.1,0,0.1c0,0,0.1,0,0.1,0c0.1,0.3,0.2,0.5,0.4,0.8c0,0,0.1,0,0.1,0.1     c0,0,0,0,0,0.1c-0.1,0-0.1,0,0,0.2c0,0,0.1,0,0.1,0c0,0,0,0.1,0,0.1c0,0-0.1,0.1-0.1,0.1c0,0,0.1,0,0.1,0.1c0,0.4,0,0.9,0.1,1.3     c0.1-0.1,0.1-0.1,0.2-0.2c0,0,0-0.1,0.1-0.1c0,0,0.1-0.1,0.1-0.2c0,0,0-0.1,0-0.1c0.2-0.5,0.6-0.4,1-0.8c0.1-0.2,0.1-0.5,0.2-0.7     c0,0,0-0.1,0-0.1c0-0.1-0.1-0.2-0.1-0.2c0,0,0-0.1,0.1-0.1c0-0.1,0-0.1-0.1-0.2c0,0,0-0.1,0-0.1C69,12.4,69,12.1,69,11.9     c0,0,0-0.1,0.1-0.1c0-0.1,0-0.1-0.1-0.2c0,0,0-0.1,0-0.1c0-0.4,0.1-0.7,0.1-1.1c0.4-0.1,0.8-0.5,1.4-0.3c0,0,0.1,0,0.1,0     c0.1,0.1,0.3,0.2,0.5,0.3c0,0,0,0,0.1,0c0.2,0.2,0.4,0.4,0.6,0.6c0,0,0.1,0,0.1,0.1c0,0.1,0.1,0.2,0.1,0.3c0,0,0,0,0.1,0     c0.2,0.7,0.5,1.3,0.7,2c0,0,0,0.1,0,0.1c0,0,0,0,0,0.1c0,0,0,0.1,0,0.1c0,0,0,0,0,0.1c0,0,0,0.1,0,0.1c0,0,0,0,0.1,0     c0,0,0,0.1,0,0.1c0,0-0.1,0.1,0,0.1c0,0,0,0.1,0,0.1c0,0,0,0,0,0.1c0,0,0,0.1,0,0.1c0,0,0,0,0,0.1c0,0,0,0.1,0,0.1     c0,0,0,0.1,0.1,0.2c0,0,0,0,0,0.1c0,0,0,0.1,0,0.1c0,0,0,0,0,0.1c0,0,0,0.1,0,0.1c0,0,0,0,0.1,0c0,0.1,0.1,0.2,0.1,0.3     c0,0,0,0.1,0,0.1c0,0,0.1,0,0.1,0c0,0.1,0.1,0.2,0.1,0.3c0,0,0,0,0,0.1c0,0,0,0.1,0,0.1c0,0,0,0,0,0.1c0,0,0.1,0.1,0.1,0.1     c0,0,0,0,0,0.1c0,0,0,0.1,0,0.1c0,0,0,0,0,0.1c0,0,0.1,0,0.1,0.1c0,0,0,0,0,0.1c0,0,0,0.1-0.1,0.1c0,0,0,0,0,0.1     c0,0.1,0.1,0.3,0.2,0.4c0,0,0.1,0,0.1,0c0.1,0.2,0.2,0.4,0.2,0.7c0,0,0.1,0.1,0.1,0.1c0.1,0.2,0.1,0.4,0.2,0.6c0,0,0,0.1,0,0.1     c0.1,0.2,0.2,0.4,0.2,0.7c0,0,0.1,0,0.1,0c0,0.1,0.1,0.5,0,0.8c0,0,0,0.1,0,0.1c0,0.1,0,0.2,0,0.3c0,0,0,0.1,0,0.1     c-0.1,0-0.2,0.1-0.3,0.1c0,0-0.1,0.1,0,0.1c0,0,0,0.1-0.1,0.1c0,0,0,0,0,0.1c0.1,0.8-1.6,0.4-1.6,0.4     C73.2,21.4,73,21.3,72.8,21.2z"/>
	<path d="M90.3,154.5c-35.4,0-64.2-28.8-64.2-64.2c0-35.4,28.8-64.2,64.2-64.2s64.2,28.8,64.2,64.2     C154.5,125.7,125.7,154.5,90.3,154.5z M90.3,27.1c-34.9,0-63.2,28.4-63.2,63.2c0,34.9,28.4,63.2,63.2,63.2     c34.9,0,63.2-28.4,63.2-63.2C153.5,55.4,125.2,27.1,90.3,27.1z"/>
</g>
</svg>