<svg width="1200" height="400" viewBox="0 0 1200 400" version="1.1" xmlns="http://www.w3.org/2000/svg">
  <g>
    <path fill="#888" stoke="none" d="m 933.9847,296.52352 c -3.8921,-1.68134 -5.3973,-5.08073 -7.4677,-16.86588 -1.2895,-7.34002 -1.4565,-12.91893 -0.9654,-32.24638 0.3266,-12.85395 1.0334,-31.04165 1.5707,-40.41712 0.7458,-13.01357 0.7041,-17.80091 -0.1765,-20.23603 -0.9675,-2.67576 -0.9126,-3.46428 0.3412,-4.89364 1.0019,-1.14228 1.7152,-4.6909 2.1639,-10.76606 0.6209,-8.40534 2.5725,-21.45598 3.9567,-26.45889 0.5683,-2.0538 0.3178,-2.00814 -6.6527,1.21239 -9.8387,4.54579 -11.9648,4.87634 -15.16642,2.35796 -1.47932,-1.16363 -2.6082,-2.99308 -2.6082,-4.22681 0,-1.19636 1.91323,-7.73515 4.25162,-14.53065 5.6068,-16.29369 6.1125,-19.53316 3.4629,-22.18276 -1.7178,-1.71779 -1.8605,-2.36577 -0.9162,-4.15923 1.5011,-2.85095 2.6729,-3.5234 6.1701,-3.5407 5.2165,-0.0258 6.5995,2.68127 6.5034,12.73015 -0.068,7.0947 -0.568,9.96171 -2.6858,15.39561 -1.4314,3.67255 -2.8445,7.44941 -3.1402,8.393 -0.3748,1.19572 2.1736,0.008 8.4092,-3.91902 16.9133,-10.6516 22.5365,-12.56283 25.0673,-8.51987 1.7113,2.73379 -1.0986,6.32694 -8.4452,10.79942 -3.6485,2.22113 -6.9451,4.82967 -7.3258,5.79677 -0.8964,2.27741 -0.9725,11.46926 -0.2052,24.78405 l 0.6122,10.62486 2.9543,-0.84728 c 4.1752,-1.19743 9.5359,-1.05094 10.8843,0.29742 2.3908,2.39076 1.1177,5.63044 -5.0557,12.86563 -3.4102,3.99676 -6.2004,7.55455 -6.2004,7.9062 0,0.35164 3.1121,-0.15696 6.9158,-1.13022 7.7435,-1.98132 12.7254,-1.6096 16.3197,1.21766 4.4294,3.48414 4.0046,9.74122 -0.8786,12.94077 -1.9475,1.27607 -4.6837,1.67181 -11.887,1.71923 -5.1464,0.0339 -9.6515,0.35601 -10.0113,0.71585 -0.3598,0.35983 0.2894,14.5254 1.4427,31.47905 2.1236,31.21651 2.0241,43.12736 -0.4089,48.94765 -2.1653,5.17991 -5.9752,6.85351 -10.8288,4.75687 z m 12.7777,-112.76268 c -0.195,-0.19494 -1.4783,-0.0724 -2.8518,0.27235 -1.8862,0.4734 -2.4974,1.22879 -2.4974,3.08662 v 2.45984 l 2.8518,-2.73218 c 1.5685,-1.5027 2.6923,-2.89168 2.4974,-3.08663 z m -215.10844,84.47562 c -4.00188,-2.74891 -10.33142,-13.74206 -18.30674,-31.79517 -3.24485,-7.34512 -6.21357,-13.70511 -6.59716,-14.13332 -0.38359,-0.42821 -3.17253,1.38734 -6.19764,4.03455 -11.76167,10.29236 -19.14655,5.76027 -12.37818,-7.59647 2.67453,-5.27792 4.68654,-5.14334 3.60958,0.24144 -0.8064,4.03202 0.90092,3.2489 5.74495,-2.6351 l 4.36595,-5.30328 -2.25912,-4.95126 c -1.24252,-2.72319 -4.54775,-10.46058 -7.34496,-17.1942 -4.11944,-9.91655 -5.26794,-11.92662 -6.04412,-10.57828 -0.52705,0.91557 -4.46827,5.53178 -8.75826,10.25824 -7.424,8.17934 -7.85248,8.89615 -8.88914,14.87087 -2.08781,12.0329 -6.68088,18.58276 -13.03109,18.58276 -2.43863,0 -3.95344,-0.63962 -5.22043,-2.20429 -2.61097,-3.22442 -2.20346,-6.06801 1.5799,-11.02449 2.81653,-3.68985 3.53058,-5.63985 4.38208,-11.96699 0.55949,-4.15736 0.86968,-7.96258 0.6893,-8.45604 -0.18037,-0.49347 -3.76713,1.14306 -7.97056,3.63673 -9.60111,5.69582 -14.30515,7.36262 -16.24208,5.75511 -3.10138,-2.57392 -1.40785,-4.48216 11.84857,-13.35065 l 13.24252,-8.8592 0.62539,-9.62731 c 0.34396,-5.29502 0.87057,-10.91509 1.17024,-12.48905 0.37741,-1.98223 -1.79299,0.65629 -7.0621,8.58531 -8.4229,12.67488 -12.62792,17.64723 -14.92391,17.64723 -0.83881,0 -1.5251,-0.25855 -1.5251,-0.57456 0,-0.31601 3.39536,-6.21833 7.54525,-13.11627 9.42053,-15.65877 17.25642,-31.57466 17.25642,-35.05042 0,-5.01721 1.58771,-7.53947 4.74594,-7.53947 1.58694,0 2.88535,-0.21012 2.88535,-0.46692 0,-0.25681 -1.10175,-3.21904 -2.44833,-6.58274 -1.58347,-3.95543 -3.09892,-6.28595 -4.29006,-6.59744 -2.10818,-0.5513 -3.6889,-4.04557 -3.00799,-6.64936 0.75636,-2.8923 4.32537,-4.70568 7.14878,-3.63222 4.79269,1.82217 13.30576,17.71934 26.85752,50.15328 l 1.38429,3.31306 4.75285,-2.46586 c 4.24836,-2.20413 5.11459,-2.34648 8.16096,-1.34108 5.78184,1.90818 8.14851,7.57348 4.53132,10.84699 -0.95945,0.86829 -2.69028,1.57871 -3.84628,1.57871 -1.156,0 -3.58361,0.61913 -5.39467,1.37584 l -3.29284,1.37584 2.74229,6.01697 c 1.50826,3.30933 4.85761,9.98301 7.44298,14.8304 l 4.7007,8.81344 4.56693,-5.28986 c 3.69718,-4.28243 5.04724,-5.23424 7.08895,-4.9978 4.54259,0.52607 3.76594,6.45539 -2.12754,16.24248 l -3.15764,5.24378 2.19115,4.18852 2.19114,4.18852 0.0431,-6.91585 c 0.024,-3.85579 0.45714,-6.91585 0.97884,-6.91585 1.06692,0 1.00012,-0.24493 4.80313,17.61222 2.4402,11.45801 3.7202,15.12438 9.15833,26.23254 7.29533,14.90177 8.08152,19.46207 4.05025,23.49334 -3.46722,3.46722 -8.17678,3.92491 -12.16902,1.18263 z m -49.33805,-90.31197 c 2.48254,-2.5661 3.5055,-4.34977 3.10028,-5.40576 -0.55112,-1.43621 -0.87978,-1.41101 -3.70504,0.2841 -1.70516,1.02306 -5.13927,3.03055 -7.63136,4.46108 -4.45419,2.55685 -4.53107,2.68188 -4.53107,7.36872 v 4.76773 l 4.53107,-3.82306 c 2.49209,-2.10268 6.19835,-5.54644 8.23612,-7.65281 z m -7.1121,-13.13799 c 3.18551,-1.8976 5.79183,-3.93616 5.79183,-4.53015 0,-0.59398 -2.21537,-7.72694 -4.92304,-15.85102 l -4.92305,-14.77106 -1.62577,3.80016 c -0.89418,2.09008 -3.1853,6.37571 -5.09139,9.52362 -3.43642,5.67525 -3.44755,5.72783 -1.32094,6.24268 2.27311,0.55031 3.83157,5.04674 5.02738,14.50487 0.31508,2.49209 0.73044,4.53108 0.92301,4.53108 0.19258,0 2.95647,-1.55258 6.14197,-3.45018 z m -383.88065,91.26208 c -3.22457,-1.31979 -5.00575,-4.05133 -7.49827,-11.49905 -2.54604,-7.60764 -6.33344,-24.91934 -6.33344,-28.94935 0,-1.32941 -0.35913,-2.63907 -0.79807,-2.91035 -0.43895,-0.27128 -3.83478,3.24478 -7.5463,7.81347 -9.22108,11.35066 -12.49295,14.50712 -15.03757,14.50712 -2.30902,0 -3.78421,-2.30352 -2.65141,-4.1402 0.37528,-0.60847 6.0355,-7.51569 12.57827,-15.34938 11.45915,-13.72011 11.91138,-14.42936 12.31668,-19.31669 0.46299,-5.58304 1.60476,-6.48017 3.13268,-2.46144 l 0.99315,2.61217 1.6065,-2.02064 c 0.88357,-1.11136 3.2371,-3.96626 5.23007,-6.34422 2.14024,-2.55369 3.85818,-5.76935 4.1967,-7.8554 0.54878,-3.38173 0.47587,-3.50161 -1.71575,-2.82093 -1.25888,0.39099 -4.74157,1.94102 -7.7393,3.44451 -4.04263,2.02755 -6.58174,2.67298 -9.83046,2.49885 l -4.38004,-0.23476 -2.20564,6.24211 c -5.58035,15.79273 -10.01828,19.98369 -16.09757,15.20171 -2.59001,-2.03729 -3.79985,-6.35819 -5.0031,-17.86837 -0.6876,-6.57755 -1.35605,-7.50974 -4.26767,-5.95149 -2.85762,1.52935 -5.70714,0.31318 -5.70714,-2.4358 0,-2.85425 3.37869,-5.19921 8.47633,-5.88295 3.121,-0.41861 4.18069,-0.10571 6.08233,1.79593 2.24214,2.24213 4.70051,7.8741 5.96631,13.66841 l 0.62516,2.86174 1.36824,-2.60219 c 0.75254,-1.43121 2.86192,-7.06595 4.68751,-12.52165 2.71632,-8.1176 3.31926,-11.34417 3.31926,-17.76265 0,-7.49967 0.12642,-7.96129 2.8866,-10.53968 3.51503,-3.28353 5.48268,-8.20553 3.90928,-9.77893 -2.79094,-2.79094 0.43788,-14.43637 8.19213,-29.54665 3.989,-7.77313 5.97544,-9.74453 7.43663,-7.38027 0.77589,1.25541 -1.68164,9.75617 -5.8689,20.30087 -1.83229,4.61424 -3.19477,8.7546 -3.02774,9.2008 0.16704,0.4462 4.72945,-3.00714 10.13869,-7.67409 10.33015,-8.91258 13.48374,-10.23966 15.47796,-6.51343 0.82502,1.54158 0.49633,4.30008 -1.50605,12.63932 -2.38117,9.91673 -2.52544,11.70781 -2.05022,25.45299 0.28116,8.13209 1.42145,25.73174 2.53398,39.11033 1.11252,13.3786 2.07853,30.54899 2.14667,38.15643 0.10941,12.21553 -0.11363,14.3649 -1.90888,18.395 -1.53099,3.43685 -2.85908,4.90854 -5.38021,5.96194 -3.75463,1.56878 -4.07144,1.59211 -6.7474,0.49686 z m -0.53193,-49.10885 0.055,-16.14681 -4.23547,6.62009 -4.23547,6.62008 2.34866,10.00368 c 1.29177,5.50202 2.85344,11.50609 3.4704,13.34237 l 1.12173,3.33868 0.7101,-3.81564 c 0.39056,-2.0986 0.73484,-11.08171 0.76508,-19.96245 z m -16.56289,-36.09161 c 1.09087,-1.69862 2.77423,-4.3059 3.7408,-5.79395 l 1.7574,-2.70555 -3.7408,2.53095 c -2.76445,1.87037 -3.88833,3.38567 -4.30606,5.80576 -0.705,4.08427 10e-4,4.12938 2.54866,0.16279 z m 15.16825,1.2042 c 2.12755,0 2.12756,-5e-5 2.06017,-17.88582 -0.0429,-11.40084 0.36469,-19.57459 1.1243,-22.54348 0.65543,-2.56171 1.0314,-4.81794 0.8355,-5.01384 -0.1959,-0.19591 -4.07382,2.44796 -8.6176,5.87527 -7.3262,5.52604 -8.2671,6.57955 -8.3116,9.30644 -0.0276,1.69124 -0.60725,6.18711 -1.28812,9.99083 -0.68086,3.80372 -1.09792,6.91585 -0.92678,6.91585 0.17113,0 1.71662,-0.85691 3.43442,-1.90425 8.82674,-5.38167 11.59724,0.28073 5.78234,11.8181 l -2.35236,4.66734 3.06609,-0.61322 c 1.68635,-0.33727 4.02349,-0.61322 5.19364,-0.61322 z m 298.49237,80.22292 c -3.67378,-2.24022 -8.25724,-12.71935 -22.88467,-52.32103 -1.69662,-4.59336 -1.32921,-4.41963 -6.23701,-2.94922 -4.35836,1.30579 -4.35867,1.3082 -2.55236,19.64396 1.40975,14.31034 0.87221,15.39608 -5.00241,10.104 -5.47275,-4.93005 -7.69925,-10.30221 -8.30697,-20.04323 -0.32503,-5.20982 -0.88519,-7.9479 -1.62598,-7.9479 -2.18779,0 -5.27833,-4.37708 -5.27833,-7.4756 0,-2.2442 1.0173,-4.16369 3.81564,-7.19953 3.42324,-3.71377 3.81565,-4.64542 3.81565,-9.05901 0,-4.77498 -0.0703,-4.90189 -2.39173,-4.31924 -1.4987,0.37614 -3.27956,0.0186 -4.76955,-0.95773 -4.74403,-3.10841 -2.10196,-10.16242 5.20194,-13.88859 3.56411,-1.81827 3.58674,-1.8674 4.12228,-8.9485 0.60868,-8.04816 1.84654,-11.1099 4.4917,-11.1099 2.59721,0 3.29866,1.5689 3.83837,8.58519 l 0.47696,6.20042 4.55059,0.52297 c 6.25096,0.71838 8.8556,3.42006 8.64108,8.96301 -0.0891,2.30312 -0.65854,5.11515 -1.26534,6.24897 -0.6068,1.13381 -0.8762,2.65321 -0.59867,3.37643 0.44649,1.16354 8.55633,3.99992 16.15667,5.65074 l 2.68265,0.58268 -0.60575,-11.71849 c -1.18219,-22.87004 -3.27719,-46.56541 -4.28322,-48.4452 -2.02266,-3.77938 -6.05753,-2.97512 -26.70888,5.32384 -9.70604,3.90047 -18.14815,7.0887 -18.76024,7.08496 -1.54325,-0.009 -2.13185,-2.07251 -1.14149,-4.00101 1.38318,-2.69341 27.06737,-16.57368 36.98298,-19.98636 10.05176,-3.45954 17.01694,-1.46469 20.84047,5.96881 2.37822,4.62359 2.71903,7.56355 5.95832,51.39862 2.12084,28.69996 4.11149,48.83253 6.24805,63.1903 2.52144,16.94415 1.65304,22.92153 -3.97301,27.34699 -3.1467,2.47519 -7.55858,2.5441 -11.43774,0.17865 z m -1.74526,-44.20948 c -0.38031,-10.62235 -0.83766,-19.45957 -1.01635,-19.63826 -0.76794,-0.76793 -14.76563,5.2022 -14.775,6.30166 -0.0139,1.62959 15.04465,32.64998 15.8496,32.64998 0.34826,0 0.32205,-8.69102 -0.0582,-19.31338 z m -22.02338,-30.20722 c 1.86848,-0.73 1.86799,-0.74699 -0.0508,-1.77389 -1.57566,-0.84327 -2.15196,-0.69315 -3.08702,0.80411 -1.27729,2.04527 -0.34916,2.33212 3.13781,0.96978 z m -7.61272,-11.52115 c 0.69205,-2.18046 -0.18291,-4.11682 -1.49407,-3.30648 -1.15748,0.71536 -1.15607,5.20577 0.002,5.20577 0.4893,0 1.16089,-0.85468 1.49244,-1.89929 z m -384.33068,78.71249 c -15.67334,-7.06798 -27.79956,-15.13487 -28.81147,-19.16666 -1.16931,-4.6589 0.63013,-4.71883 13.88761,-0.46257 6.87028,2.20568 12.95251,3.85662 13.51607,3.66877 0.92292,-0.30764 -2.91423,-4.18354 -9.9502,-10.05069 -2.72462,-2.27201 -3.39524,-6.01188 -1.37391,-7.66194 2.38305,-1.94536 11.7056,-4.02978 18.02317,-4.02978 7.73793,0 14.56932,2.32206 21.90151,7.44455 4.48946,3.13647 5.14759,4.0053 5.14759,6.79557 0,4.73253 -2.23307,5.73314 -7.86709,3.52512 -10.24139,-4.01368 -19.91145,-7.23095 -21.70414,-7.22108 -1.38019,0.008 0.92819,2.7618 8.34672,9.9587 9.07834,8.80713 10.25454,10.32047 10.25454,13.19385 0,4.5214 -3.8491,8.27694 -8.4768,8.27074 -2.02705,-0.003 -7.33858,-1.75951 -12.8936,-4.26458 z m -39.63514,-3.78514 c -1.6528,-1.99149 -2.95902,-12.66928 -1.89288,-15.47343 0.70154,-1.84519 1.46246,-2.28917 3.51795,-2.05266 2.89639,0.33328 2.86143,0.0702 1.59487,12.00245 -0.67884,6.39537 -1.42879,7.68186 -3.21994,5.52364 z m 691.73994,-0.11694 c -3.29776,-2.30983 -5.52282,-7.62084 -7.72239,-18.43256 -1.10891,-5.45073 -2.0162,-10.49453 -2.0162,-11.20845 0,-2.8732 2.90741,-0.9845 7.03509,4.57009 2.74741,3.69716 4.52538,5.37348 4.80585,4.53107 1.1881,-3.56849 3.63105,-17.82984 4.88503,-28.51766 2.16879,-18.48473 1.72928,-45.79356 -0.73701,-45.79356 -0.50716,0 -5.92188,2.21673 -12.0327,4.92607 -6.11082,2.70933 -13.08067,5.11826 -15.48854,5.35316 -3.89146,0.37963 -4.60696,0.13595 -6.43889,-2.19298 -1.565,-1.98957 -2.06095,-3.92969 -2.06095,-8.0623 0,-5.97849 2.88294,-18.479 5.49151,-23.81133 1.43432,-2.93198 2.12161,-3.39907 5.0015,-3.39907 3.15793,0 3.35451,0.19007 3.63078,3.51056 0.17421,2.09381 -1.07694,7.89606 -3.10021,14.37733 -1.86576,5.97672 -3.3923,11.616 -3.3923,12.53172 0,2.38645 2.36291,1.47746 15.23736,-5.86167 13.49525,-7.69303 17.64452,-8.51626 21.82968,-4.33109 1.54954,1.54954 3.31822,4.50056 3.93039,6.55782 1.71503,5.76349 3.22521,57.73892 2.06104,70.93413 -1.2432,14.09098 -2.37481,17.78638 -6.80239,22.21395 -3.07057,3.07058 -4.21392,3.59868 -7.79124,3.59868 -2.30591,0 -5.15235,-0.67226 -6.32541,-1.49391 z M 985.668,229.67569 c -6.5211,-11.12728 -8.5736,-20.45332 -5.712,-25.95321 3.3714,-6.4798 11.919,-10.89551 21.2608,-10.9834 6.7751,-0.0637 9.6173,1.42343 13.501,7.06436 1.9616,2.84913 2.187,4.08518 1.8234,9.99987 l -0.415,6.74889 6.0639,-1.45088 c 5.4927,-1.31422 6.2063,-1.30851 7.5754,0.0606 2.7822,2.78224 0.6504,5.24116 -10.1522,11.71025 -11.8211,7.07896 -16.1465,7.95979 -19.8306,4.03828 -3.5555,-3.78471 -3.4999,-7.06341 0.2514,-14.81748 1.8608,-3.84647 3.3833,-7.38204 3.3833,-7.85682 0,-0.47477 -2.6828,0.13727 -5.9619,1.3601 -5.5256,2.06059 -5.9848,2.45609 -6.2735,5.40335 -0.1714,1.74902 0.4331,6.05118 1.3432,9.56038 1.8949,7.30566 1.453,9.49654 -1.9154,9.49654 -1.8127,0 -2.982,-1.03652 -4.9418,-4.38082 z m 61.6966,1.86485 c -4.7178,-5.99758 -7.4119,-24.015 -4.4481,-29.74644 0.8625,-1.66776 2.0936,-3.05112 2.736,-3.07415 0.6423,-0.023 -0.5063,-0.63848 -2.5524,-1.36766 -8.9455,-3.18789 -6.5871,-10.74768 4.4333,-14.21109 20.1138,-6.32123 33.1508,-1.54325 33.1508,12.14957 0,3.67712 -1.9776,11.57019 -4.2755,17.06427 -0.5491,1.3128 -0.218,1.67382 1.5502,1.6903 3.3616,0.0313 9.892,3.28586 11.661,5.81154 0.8565,1.22281 1.5573,3.34903 1.5573,4.72493 0,4.19577 -2.8682,5.79694 -12.1259,6.76926 -9.8596,1.03553 -14.9319,0.48516 -19.1457,-2.07744 -3.0089,-1.82981 -3.0692,-1.83061 -3.0692,-0.0408 0,4.86494 -6.2605,6.39025 -9.4718,2.3077 z m 13.4442,-22.28828 c 4.7374,-5.98468 7.4668,-10.64933 7.471,-12.76832 0,-1.65752 -0.5471,-1.751 -6.9123,-1.17395 -3.8037,0.34483 -8.1464,0.9562 -9.6504,1.35859 l -2.7346,0.73163 2.4383,1.111 c 2.7894,1.27093 4.4481,5.962 4.4564,12.60375 0,2.3347 0.3487,3.83711 0.7685,3.33869 0.4197,-0.49842 2.2931,-2.83905 4.1631,-5.20139 z m -670.04046,20.65329 c -3.13042,-2.90615 -3.40324,-6.57705 -0.98933,-13.31168 1.20779,-3.36964 1.35127,-4.76536 0.54135,-5.26592 -2.25207,-1.39185 -3.1317,-6.33345 -3.22427,-18.11322 -0.0523,-6.65514 -0.39953,-13.17341 -0.77162,-14.48504 -0.71241,-2.51123 -2.34078,-2.78784 -8.05843,-1.3689 -2.69944,0.66992 -4.37988,-0.48281 -4.41501,-3.02854 -0.008,-0.58232 3.74142,-6.78689 8.33211,-13.78794 4.5907,-7.00104 10.93754,-17.89999 14.10409,-24.21987 5.96701,-11.9091 8.0998,-13.95428 10.95916,-10.50897 1.04402,1.25798 1.07231,2.39226 0.14979,6.00798 -1.64097,6.43165 -10.78474,24.57598 -15.85782,31.46727 -4.76362,6.47091 -4.93582,6.85378 -3.0826,6.85378 1.95799,0 5.10972,3.84188 7.40096,9.02162 l 2.08135,4.70525 2.24278,-4.41306 c 2.37451,-4.67225 4.18072,-6.50917 4.18072,-4.2518 0,0.74744 -1.07315,6.11296 -2.38478,11.92339 -2.91809,12.92699 -3.06238,15.94021 -0.71543,14.94085 0.91814,-0.39096 4.20832,-1.40413 7.31151,-2.2515 5.51172,-1.50505 5.68095,-1.65088 7.31888,-6.30708 2.32684,-6.6146 2.22781,-7.45556 -1.11023,-9.42739 -1.61414,-0.95349 -3.75884,-3.08503 -4.76599,-4.73674 -3.48225,-5.71083 -1.48856,-13.89859 3.09254,-12.70061 1.25564,0.32836 2.19763,-0.33177 3.17757,-2.22677 0.76607,-1.48142 2.64393,-3.69709 4.17302,-4.92372 2.58788,-2.07599 5.07992,-8.44362 3.29539,-8.42033 -0.43517,0.006 -2.87283,0.64186 -5.41701,1.41374 -3.29342,0.99919 -5.14801,1.12393 -6.4389,0.43307 -0.99721,-0.53369 -1.81311,-1.19809 -1.81311,-1.47645 0,-1.99115 2.82168,-4.61401 8.19871,-7.62102 3.44653,-1.92741 6.48589,-4.07633 6.75414,-4.77537 0.48024,-1.25149 -0.9471,-17.56702 -2.13348,-24.38722 -0.51347,-2.95181 -0.28746,-3.66434 1.45872,-4.59887 1.6571,-0.88685 2.54173,-0.79437 4.46681,0.46699 3.03271,1.98711 4.98976,6.64006 6.61741,15.73313 0.70435,3.93488 1.2956,7.18032 1.31391,7.21208 0.0183,0.0318 2.93078,-1.35705 6.47217,-3.08626 9.27695,-4.5298 14.54714,-4.06941 14.54714,1.2708 0,2.91612 -5.06004,6.79954 -13.58568,10.42658 -6.36242,2.70674 -6.94789,3.19351 -7.22571,6.0075 l -0.30232,3.0621 7.08125,-0.64168 c 14.37602,-1.30272 20.08749,4.41612 15.46333,15.4833 -1.86733,4.46915 -1.88695,4.43031 1.38349,2.7391 3.91378,-2.0239 6.47672,-1.83177 7.23012,0.54198 0.85989,2.7093 -2.53507,6.1332 -13.86012,13.97824 -10.18959,7.05849 -16.17372,11.81653 -16.19929,12.88021 -0.009,0.39349 1.60966,0.71544 3.59804,0.71544 6.33888,0 23.63205,5.41741 33.72963,10.56645 9.28129,4.73279 9.95303,17.83076 1.10408,21.52809 -5.30479,2.21648 -9.66744,0.93332 -18.49106,-5.43866 -11.56044,-8.34838 -15.37388,-10.33696 -24.01182,-12.52131 l -7.83527,-1.98137 -1.92516,2.67707 c -9.49683,13.20603 -17.52635,19.58301 -25.48423,20.23939 -4.41812,0.36441 -5.39022,0.10902 -7.6815,-2.01811 z m 12.7315,-12.69579 c 2.92445,-3.19772 5.63128,-7.1235 5.63128,-8.16718 0,-0.40791 -1.20574,-0.74166 -2.67941,-0.74166 -1.47368,0 -3.5042,-0.60309 -4.51226,-1.34021 -1.66905,-1.22044 -1.94025,-1.0848 -3.03451,1.51767 -0.66091,1.57184 -2.08255,3.08825 -3.15921,3.3698 -1.74294,0.45579 -1.88753,0.99534 -1.31887,4.92123 0.35128,2.42512 0.82298,4.72968 1.04823,5.12124 0.61617,1.07111 5.22055,-1.61466 8.02475,-4.68089 z M 420.556,175.39101 c 0.004,-1.10694 -0.99082,-2.3707 -2.37017,-3.01046 -2.14463,-0.99471 -2.37734,-0.89877 -2.37734,0.98013 0,1.14553 0.69886,3.08053 1.55301,4.3 1.21682,1.73726 1.7299,1.93808 2.37017,0.92769 0.44944,-0.70925 0.82039,-2.14806 0.82433,-3.19736 z m 21.51856,-4.03355 c 3.45969,-4.05473 5.84182,-7.52174 5.29362,-7.70447 -0.54819,-0.18273 -3.36616,0.35657 -6.26214,1.19846 -3.69818,1.07509 -5.28235,2.01965 -5.32229,3.1734 -0.0313,0.90348 -0.39248,3.68168 -0.80268,6.17377 -0.4102,2.49209 -0.3973,4.53107 0.0287,4.53107 0.42597,0 3.60514,-3.3175 7.06482,-7.37223 z M 106.41234,227.5425 c -0.86829,-0.95945 -1.57871,-2.65609 -1.57871,-3.77032 0,-4.72067 17.93442,-35.14177 45.01417,-76.35489 6.37526,-9.70262 6.45021,-9.89099 5.029,-12.63931 -0.7935,-1.53445 -1.72591,-2.78991 -2.07204,-2.78991 -0.34613,0 -6.28295,3.23749 -13.19294,7.19442 -13.26021,7.59332 -17.88008,9.02398 -18.35277,5.68338 -0.30354,-2.14517 -0.81113,-1.7801 16.25408,-11.68995 7.842,-4.55389 11.93792,-7.46373 11.51671,-8.18175 -3.03962,-5.18143 -10.4082,-15.36595 -14.02072,-19.3788 -2.43094,-2.70034 -4.4199,-5.37331 -4.4199,-5.93995 0,-0.56663 1.01521,-1.69543 2.25602,-2.50844 1.72435,-1.12984 2.85457,-1.25063 4.79588,-0.51254 3.80779,1.44772 11.10011,8.68021 16.82951,16.69143 l 5.09737,7.12748 3.11862,-1.92741 c 6.66564,-4.11959 8.74715,-4.84221 10.79347,-3.74705 2.93591,1.57125 2.39533,5.12416 -1.87271,12.30834 -2.09861,3.53248 -3.81565,6.72424 -3.81565,7.09282 0,0.848 10.37219,17.871 11.90663,19.54134 0.90769,0.98808 1.97042,-0.90572 5.16198,-9.19874 4.18757,-10.88104 6.02445,-13.50849 9.44396,-13.50849 3.84797,0 4.195,2.87443 1.64827,13.65262 -1.29642,5.48668 -3.4124,12.88304 -4.70218,16.43634 l -2.34506,6.46055 13.14758,17.73537 c 19.55519,26.37891 22.01955,30.1903 22.01955,34.05551 0,4.00493 -3.53072,8.00459 -7.06609,8.00459 -5.45483,0 -7.34667,-2.0715 -21.76064,-23.8272 -7.82852,-11.81596 -14.5567,-21.60132 -14.95152,-21.74525 -0.39482,-0.14392 -1.50425,0.60728 -2.46541,1.66935 -1.93643,2.13972 -6.16611,2.55869 -7.93846,0.78634 -0.76563,-0.76564 -1.1447,-5.01142 -1.1447,-12.8215 0,-6.42224 -0.37944,-11.91131 -0.8432,-12.19793 -0.46376,-0.28662 -1.41616,0.86851 -2.11643,2.56695 -1.65111,4.00458 -11.52313,18.78013 -14.11448,21.12526 -2.90822,2.6319 -2.4884,3.42582 1.81154,3.42582 6.69569,0 9.79941,5.26773 5.48499,9.30928 -4.3736,4.097 -12.70451,5.37283 -16.71966,2.56051 -3.28077,-2.29794 -2.53966,-3.2846 2.46716,-3.2846 2.55665,0 5.40689,-0.61995 6.4389,-1.40052 1.69975,-1.28563 1.41125,-1.40302 -3.51653,-1.43087 -6.43054,-0.0363 -8.40402,-1.60114 -6.70956,-5.32009 0.5943,-1.30434 3.80755,-6.1208 7.14056,-10.70325 3.33301,-4.58244 6.36929,-8.86829 6.74729,-9.52411 1.26623,-2.19685 -0.95398,-1.22299 -4.88721,2.1437 -3.81355,3.26426 -7.91149,10.05281 -25.55182,42.32855 -9.49893,17.37978 -13.68841,21.22833 -17.96485,16.50292 z m 51.31797,-72.58718 c 0.29931,-0.48429 1.82705,-1.16228 3.39499,-1.50666 3.32688,-0.73071 3.30277,-0.64917 1.3236,-4.47648 -1.67903,-3.24688 -1.7915,-3.17588 -5.20647,3.28649 -1.03967,1.96744 -1.47766,3.57717 -0.97331,3.57717 0.50435,0 1.16189,-0.39623 1.46119,-0.88052 z m 627.43138,71.00626 c -1.77514,-1.49368 -3.21965,-3.96527 -3.90257,-6.67737 -0.59633,-2.36825 -1.27318,-4.30591 -1.5041,-4.30591 -0.23093,0 -1.49301,1.07315 -2.80464,2.38477 -2.66903,2.66904 -5.06616,3.01095 -7.68483,1.09613 -1.43503,-1.04932 -1.65442,-2.07603 -1.18126,-5.52812 0.3196,-2.3317 0.85158,-4.94437 1.18219,-5.80592 0.44438,-1.15804 -0.44936,-2.10237 -3.4279,-3.6219 l -4.029,-2.05545 0.60608,2.23417 c 1.45392,5.3595 1.82734,15.0836 0.63445,16.52096 -1.97455,2.37918 -5.52202,1.78822 -7.02658,-1.17052 -1.96303,-3.86032 -6.60421,-23.86467 -6.72178,-28.97212 -0.0666,-2.89521 -0.47775,-4.26479 -1.1974,-3.98909 -0.60274,0.23091 -1.40904,-0.0868 -1.79178,-0.70613 -0.41945,-0.67869 0.8283,-2.50439 3.14117,-4.5961 5.65216,-5.11172 8.46231,-9.37689 16.03133,-24.33196 6.8947,-13.62275 9.07112,-16.16383 12.97076,-15.14405 1.04943,0.27443 2.37975,1.53423 2.95627,2.79956 1.19275,2.6178 -0.93864,7.55006 -7.83985,18.14226 l -3.85839,5.92199 5.97202,-4.52021 c 10.74025,-8.12927 16.31331,-8.71702 20.16244,-2.1264 1.71785,2.94137 1.95773,5.79 2.59757,30.84766 0.38772,15.18387 0.33693,28.57498 -0.11287,29.75803 -1.09728,2.88609 -5.47471,6.21719 -8.17006,6.21719 -1.20062,0 -3.45119,-1.06716 -5.00127,-2.37147 z m -18.69701,-37.31659 c 5.0317,-2.10238 8.51909,-1.66606 12.14762,1.51983 l 3.24588,2.84992 1.21053,-10.50957 c 0.66578,-5.78027 1.01363,-10.70647 0.77298,-10.94712 -0.24065,-0.24065 -3.27653,1.52264 -6.74641,3.91842 -7.07678,4.88617 -10.39736,5.28522 -11.19546,1.3454 -0.46655,-2.30312 -0.66821,-2.19725 -5.89001,3.09216 -2.97381,3.01231 -5.00666,5.72431 -4.51744,6.02666 0.48921,0.30235 1.7751,2.2857 2.85753,4.40744 1.9663,3.85427 1.96939,3.85582 3.44973,1.74234 0.81492,-1.16346 2.91419,-2.71392 4.66505,-3.44548 z m 122.78845,30.07508 c -4.45001,-1.64616 -5.07452,-4.10608 -5.07452,-19.98818 0,-17.89782 -0.48556,-19.18395 -6.49397,-17.201 -2.12146,0.70015 -4.53301,1.01366 -5.35899,0.6967 -3.17338,-1.21774 -1.30894,-5.09084 8.11256,-16.85264 11.30285,-14.11048 16.14123,-22.98237 16.14123,-29.59734 0,-3.24793 0.42673,-4.70308 1.49997,-5.11492 4.40671,-1.69102 7.72357,5.19043 6.06627,12.58562 -1.80483,8.05353 -5.64014,14.68678 -16.46705,28.48018 -1.72669,2.19978 -1.71278,2.25336 1.22665,4.72673 1.63522,1.37595 3.65697,3.82411 4.49276,5.44036 l 1.51963,2.93863 2.83123,-3.52921 c 5.19229,-6.47234 5.56061,-4.74483 1.89775,8.90097 -1.49931,5.58562 -1.81897,8.98087 -1.43695,15.26257 0.4371,7.18736 0.27153,8.35544 -1.50036,10.58487 -2.30014,2.89408 -4.60912,3.71987 -7.45621,2.66666 z m -559.2421,-8.09185 c -13.56891,-11.38455 -16.6409,-15.90654 -14.43078,-21.24224 1.48862,-3.59385 5.10738,-5.54571 12.74893,-6.87643 6.91641,-1.20444 6.88706,-1.16487 5.78953,-7.8039 l -0.58639,-3.54709 -4.41115,2.47542 c -2.42613,1.36148 -5.54325,3.74206 -6.92694,5.29016 -3.31962,3.71408 -7.82241,3.52795 -8.27027,-0.34187 -0.25811,-2.23031 0.86421,-3.36759 9.41371,-9.53911 l 9.70676,-7.0069 -0.60432,-13.35475 c -0.33237,-7.34511 -1.0918,-17.52546 -1.68762,-22.62299 -1.19881,-10.25639 -0.61672,-12.19475 3.66212,-12.19475 1.7189,0 2.6558,0.81171 3.63106,3.14583 1.41144,3.37805 3.82563,18.45566 4.88031,30.47952 0.35665,4.06605 0.96608,7.39281 1.3543,7.39281 0.38821,0 2.24688,-0.64389 4.13038,-1.43087 4.83169,-2.0188 11.38246,-1.86497 13.35404,0.31359 4.48791,4.95909 -1.2053,10.91041 -8.95458,9.36055 -1.5575,-0.3115 -3.90264,-0.0785 -5.21142,0.51785 -1.97747,0.901 -2.37664,1.74344 -2.36212,4.98522 0.0229,5.10444 2.40072,21.72333 4.2477,29.68736 2.1472,9.25856 1.9121,13.11524 -1.01128,16.58948 -1.97571,2.34799 -3.20919,2.93492 -6.168,2.93492 -3.21122,0 -4.83078,-0.95006 -12.29397,-7.21181 z m 5.37159,-16.2801 c -0.31941,-4.52613 -0.76904,-8.41763 -0.99918,-8.64776 -0.59133,-0.59133 -11.10428,5.44838 -11.10428,6.37942 0,1.09794 10.44541,10.49768 11.66549,10.49768 0.68851,0 0.83048,-2.66747 0.43797,-8.22934 z m 179.2577,8.62832 c -0.31845,-0.82986 0.14601,-13.54566 1.03214,-28.25733 1.69399,-28.12416 2.36047,-31.30861 6.241,-29.81951 3.34424,1.28331 3.31131,6.74688 -0.24558,40.74665 -0.97427,9.31294 -2.03651,17.36156 -2.36052,17.88583 -0.91987,1.48837 -4.02452,1.11875 -4.66704,-0.55564 z m 290.73005,-9.40541 c -1.00623,-2.62218 0.13977,-4.75045 4.24324,-7.88028 4.73188,-3.60912 9.43778,-4.16146 11.93601,-1.40096 2.16353,2.39068 1.97986,3.6715 -0.62008,4.32405 -1.20933,0.30352 -4.10684,1.84465 -6.4389,3.42474 -4.58215,3.10463 -8.27863,3.72574 -9.12027,1.53245 z m 212.24893,-21.04141 c -3.6223,-1.96869 -5.2164,-6.3936 -3.8764,-10.75987 0.9205,-2.99931 0.8224,-3.75152 -0.7075,-5.42353 -3.1965,-3.49341 -6.7562,-11.76361 -6.7562,-15.69635 0,-2.09136 -0.4902,-4.87824 -1.0893,-6.19306 -3.1236,-6.85575 10.6172,-12.87352 30.1632,-13.20982 12.8553,-0.22119 18.6216,3.19269 18.6216,11.02469 0,3.942 -3.6761,10.92262 -7.6422,14.51187 -1.0433,0.94418 -1.8969,1.98716 -1.8969,2.31773 0,0.33058 2.6126,0.58599 5.8059,0.56759 4.9726,-0.0287 6.0679,0.28976 7.6313,2.21853 5.4672,6.74495 -0.2097,12.31375 -19.4752,19.10406 -9.2321,3.25399 -16.6156,3.80056 -20.7783,1.53816 z m 11.6164,-25.94007 c 5.7367,-5.08545 10.4303,-9.64045 10.4303,-10.12222 0,-0.48176 -1.3951,-0.63827 -3.1002,-0.34779 -1.7051,0.29048 -7.3262,0.82161 -12.4914,1.1803 l -9.3913,0.65216 0.5421,2.50302 c 0.2981,1.37667 1.0537,5.40053 1.6792,8.94192 0.6254,3.5414 1.309,6.4389 1.519,6.4389 0.2101,0 5.0757,-4.16083 10.8123,-9.24629 z m -316.14619,-1.72242 c -7.41014,-8.30628 -8.89997,-11.84362 -6.1475,-14.5961 3.23438,-3.23437 9.26839,0.82419 13.15169,8.846 2.25184,4.65169 3.07292,12.9396 1.34253,13.55135 -0.58,0.20504 -4.33602,-3.30552 -8.34672,-7.80125 z m -457.05461,3.97692 c -1.69965,-4.06783 -3.50806,-5.54881 -8.93457,-7.31687 -5.41977,-1.76586 -7.31033,-5.39873 -4.45275,-8.55631 5.73497,-6.33708 19.5813,3.66944 19.5813,14.15109 0,5.40145 -4.17199,6.56138 -6.19398,1.72209 z m -74.77065,-32.55842 c -2.95029,-11.76317 -4.20677,-13.9572 -7.60393,-13.27777 -3.19963,0.63993 -5.86859,-1.54483 -5.86859,-4.80391 0,-2.71122 2.79161,-5.32621 5.68594,-5.32621 2.88644,0 7.88536,5.36724 9.4103,10.10366 1.64076,5.09616 2.45071,16.57365 1.36836,19.39067 -0.76616,1.9941 -1.17296,1.16659 -2.99208,-6.08644 z" />
  </g>
</svg>
