<?xml version="1.0" encoding="UTF-8"?><svg viewBox="0 0 302.87 120.38" xmlns="http://www.w3.org/2000/svg"><path d="m293.92 99.61-7.37 4.17s-8.74 4.37-16.78 3.15-1.4-5.42-1.4-5.42l14.33 0.17 6-14.16-37.69-87.52-34.53 1.38-24.29 1.22-9.26 21.84-29.71 58.89-14.5 22.37s-11.93 6.36-16.6 5.42c-5.49-1.11-6.29-4.54-6.29-4.54l21.32-6.12-42.99-95.06s-15.44-3.93-38.8-5.07c-15.64-0.76-30.3 3.05-30.3 3.05l-1.57 1.74s1.28 23.34 25.22 29.81 28.31-2.8 28.31-2.8c8.74-2.27 2.97 6.12 2.97 6.12l31.45 78.29 51.03-0.17 48.07-95.07 29.01-0.52c6.99 1.22-0.35 4.54-0.35 4.54l-14.15 0.35 39.12 94.71h38.71l-8.95-20.77z" fill="#b61f22"/><ellipse cx="45.89" cy="12.02" rx="10.42" ry="4.82" fill="#fdede1"/><ellipse cx="45.89" cy="12.02" rx="6.16" ry="2.39" fill="#f3d63f"/><ellipse cx="70.66" cy="14.41" rx="10.42" ry="4.82" fill="#fdede1"/><ellipse cx="70.66" cy="14.41" rx="6.16" ry="2.39" fill="#f3d63f"/><polyline points="3.93 16.18 0 14.41 3.55 20.74 3.01 27.98 10.35 20.9 22.8 16.84 22.8 13.5 20.97 13.5 11.8 15.86" fill="#e88b85"/><ellipse transform="translate(39.88 223.25) rotate(-49.5)" cx="262.06" cy="68.37" rx="2" ry="1.34" fill="#fdede1"/><ellipse transform="translate(-17.86 111.38) rotate(-49.5)" cx="111.86" cy="75.05" rx="2" ry="1.34" fill="#fdede1"/><ellipse cx="259.28" cy="65.17" rx=".8" ry=".82" fill="#fdede1"/><ellipse transform="translate(-19.65 49.91) rotate(-23.84)" cx="108.39" cy="71.5" rx=".82" ry=".8" fill="#fdede1"/></svg>
