<?xml version="1.0" encoding="UTF-8"?>
<svg overflow="hidden" viewBox="0 0 1222 1223" xml:space="preserve" xmlns="http://www.w3.org/2000/svg"><defs><clipPath id="a"><rect x="1589" y="626" width="1222" height="1223"/></clipPath></defs><g transform="translate(-1589 -626)" clip-path="url(#a)" fill-rule="evenodd"><path d="m1589 1237.5c0-337.72 273.55-611.5 611-611.5s611 273.78 611 611.5c0 337.72-273.55 611.5-611 611.5s-611-273.78-611-611.5z" fill="#B61F22"/><path d="m1714 1237.5c0-268.13 217.59-485.5 486-485.5s486 217.37 486 485.5c0 268.13-217.59 485.5-486 485.5s-486-217.37-486-485.5z" fill="#F3D63F"/><path d="m1760 1237.5c0-242.73 196.99-439.5 440-439.5s440 196.77 440 439.5c0 242.73-196.99 439.5-440 439.5s-440-196.77-440-439.5z" fill="#FDEDE1"/><path d="m1734.7 1116.9 49.84-49.84 211.14 211.14-49.84 49.84z" fill="#F3D63F"/><path d="m2153 1011.8 115.94 115.93-302.38 302.38-115.93-115.94z" fill="#F3D63F"/><path d="m1722.3 1251.2 49.84-49.84 211.59 211.6-49.84 49.83z" fill="#F3D63F"/><path d="m1664.5 1132.2 66.38-66.38 276.92 276.92-66.38 66.38z" fill="#B61F22"/><path d="m2154.3 1063.4 66.38 66.38-276.91 276.92-66.38-66.38z" fill="#B61F22"/><path d="m2664.8 1357.6-49.84 49.84-211.14-211.15 49.84-49.84z" fill="#F3D63F"/><path d="m2246.5 1462.7-115.94-115.93 302.38-302.37 115.93 115.93z" fill="#F3D63F"/><path d="m2677.2 1223.3-49.84 49.84-211.6-211.59 49.84-49.84z" fill="#F3D63F"/><path d="m2735.5 1342.8-66.38 66.38-276.92-276.92 66.38-66.38z" fill="#B61F22"/><path d="m2245.7 1411.6-66.38-66.38 276.91-276.92 66.38 66.38z" fill="#B61F22"/></g></svg>
